<svg width="30" height="30" xmlns="http://www.w3.org/2000/svg">

 <g>
  <title>background</title>
  <rect fill="none" id="canvas_background" height="32" width="32" y="-1" x="-1"/>
 </g>
 <g>
  <title>Layer 1</title>
  <g stroke="null" id="svg_1">
   <path id="svg_2" fill="#ffffff" d="m26.718283,1.285904c-0.352849,0 -0.638889,0.270712 -0.638889,0.604652c0,0.33394 0.28604,0.604652 0.638889,0.604652c0.352849,0 0.638889,-0.270712 0.638889,-0.604652c0,-0.33394 -0.28604,-0.604652 -0.638889,-0.604652zm0,1.813955c-0.176429,0 -0.319444,0.135357 -0.319444,0.302326l0,4.534887c0,0.166968 0.143015,0.302326 0.319444,0.302326c0.176429,0 0.319444,-0.135357 0.319444,-0.302326l0,-4.534887c0,-0.166968 -0.143015,-0.302326 -0.319444,-0.302326zm-11.180556,4.837213c-2.642582,0 -4.791667,2.033918 -4.791667,4.534887c0,2.500966 2.149085,4.534893 4.791667,4.534893c2.642582,0 4.791667,-2.033927 4.791667,-4.534893c0,-2.500969 -2.149085,-4.534887 -4.791667,-4.534887zm0,0.604652c2.297301,0 4.152778,1.756044 4.152778,3.930235c0,2.174182 -1.855477,3.930241 -4.152778,3.930241c-2.297301,0 -4.152778,-1.756059 -4.152778,-3.930241c0,-2.174191 1.855477,-3.930235 4.152778,-3.930235zm0,10.883735c-3.060345,0 -5.822562,0.696589 -7.846354,1.83285c-2.023792,1.136261 -3.334201,2.737258 -3.334201,4.515992l0,1.209303a0.319476,0.302356 0 0 0 0.319444,0.302326l21.722223,0a0.319476,0.302356 0 0 0 0.319444,-0.302326l0,-1.209303c0,-1.778734 -1.310409,-3.37973 -3.334201,-4.515992c-2.023792,-1.136261 -4.786009,-1.83285 -7.846354,-1.83285zm0,0.604652c2.956711,0 5.624411,0.679659 7.52691,1.747806c1.902499,1.068177 3.014757,2.499751 3.014757,3.996384l0,0.906977l-21.083334,0l0,-0.906977c0,-1.496634 1.112258,-2.928207 3.014757,-3.996384c1.902499,-1.068147 4.570199,-1.747806 7.52691,-1.747806z"/>
  </g>
 </g>
</svg>