<svg width="30" height="30" xmlns="http://www.w3.org/2000/svg">
 <title>random vol.2</title>

 <g>
  <title>background</title>
  <rect fill="none" id="canvas_background" height="32" width="32" y="-1" x="-1"/>
 </g>
 <g>
  <title>Layer 1</title>
  <g stroke="null" id="svg_5">
   <path fill="#ffffff" stroke="null" id="svg_1" d="m28.005148,23.509987l-25.862213,0a0.796643,0.816171 0 0 1 -0.796643,-0.816171l0,-16.770688a0.796643,0.816171 0 0 1 0.796643,-0.816171l25.862213,0a0.796643,0.816171 0 0 1 0.796643,0.816171l0,16.770688a0.796643,0.816171 0 0 1 -0.796643,0.816171zm-25.06557,-1.632343l24.268928,0l0,-15.128551l-24.268928,0l0,15.128551z"/>
   <path fill="#ffffff" stroke="null" id="svg_2" d="m14.905153,15.237275a0.787083,0.806377 0 0 1 -0.439747,-0.133852l-7.539428,-5.105968a0.796643,0.816171 0 1 1 0.876307,-1.361374l7.112427,4.815411l8.524078,-5.527112a0.796643,0.816171 0 0 1 0.854001,1.380962l-8.960639,5.807875a0.79027,0.809642 0 0 1 -0.427001,0.124058z"/>
  </g>
 </g>
</svg>