<svg width="49" height="50" xmlns="http://www.w3.org/2000/svg">
 <title>GitHub icon</title>

 <g>
  <title>background</title>
  <rect x="-1" y="-1" width="51" height="52" id="canvas_background" fill="none"/>
 </g>
 <g>
  <title>Layer 1</title>
  <path stroke="null" d="m24.887756,4.154142c-11.946403,0 -21.622449,9.177126 -21.622449,20.49609c0,9.057558 6.194832,16.738469 14.784354,19.445663c1.081122,0.193004 1.477534,-0.440664 1.477534,-0.985522c0,-0.48678 -0.018019,-1.776328 -0.027032,-3.484337c-6.014645,1.236595 -7.283161,-2.749889 -7.283161,-2.749889c-0.983821,-2.365591 -2.405493,-2.997556 -2.405493,-2.997556c-1.958638,-1.270759 0.151357,-1.245134 0.151357,-1.245134c2.17125,0.143474 3.311838,2.111095 3.311838,2.111095c1.928002,3.134194 5.061451,2.228953 6.297534,1.704595c0.194602,-1.325414 0.751384,-2.228953 1.369422,-2.741358c-4.801981,-0.512397 -9.849025,-2.275061 -9.849025,-10.128477c0,-2.237492 0.837874,-4.065061 2.225315,-5.499785c-0.243257,-0.51753 -0.97301,-2.601298 0.189192,-5.42463c0,0 1.810884,-0.549982 5.946173,2.100846c1.729796,-0.456039 3.567704,-0.681496 5.405612,-0.691746c1.837908,0.01025 3.675816,0.235707 5.405612,0.691746c4.108265,-2.650828 5.91915,-2.100846 5.91915,-2.100846c1.162202,2.823333 0.432449,4.907101 0.216224,5.42463c1.378427,1.434725 2.216301,3.262294 2.216301,5.499785c0,7.873907 -5.054252,9.607541 -9.865246,10.111399c0.756786,0.614888 1.459515,1.871975 1.459515,3.791777c0,2.743061 -0.027024,4.946389 -0.027024,5.61251c0,0.538029 0.378393,1.178526 1.486539,0.973569c8.650786,-2.688405 14.840207,-10.374441 14.840207,-19.418336c0,-11.318964 -9.681447,-20.49609 -21.622449,-20.49609" id="svg_1" fill="#ffffff"/>
 </g>
</svg>