<svg width="50" height="54" xmlns="http://www.w3.org/2000/svg">
 <title>GitHub icon</title>

 <g>
  <title>background</title>
  <rect fill="none" id="canvas_background" height="56" width="52" y="-1" x="-1"/>
 </g>
 <g>
  <title>Layer 1</title>
  <path fill="#ffffff" stroke="null" id="svg_1" d="m25.5,1.297c-14.08875,0 -25.5,11.800656 -25.5,26.355457c0,11.646916 7.30575,21.523623 17.435625,25.00474c1.275,0.248181 1.7425,-0.566642 1.7425,-1.267258c0,-0.625942 -0.02125,-2.28414 -0.031875,-4.480428c-7.09325,1.590113 -8.58925,-3.536024 -8.58925,-3.536024c-1.16025,-3.041859 -2.836875,-3.854486 -2.836875,-3.854486c-2.309875,-1.634038 0.1785,-1.601094 0.1785,-1.601094c2.560625,0.184488 3.90575,2.714612 3.90575,2.714612c2.27375,4.030189 5.969125,2.866156 7.426875,2.191896c0.2295,-1.70432 0.886125,-2.866156 1.615,-3.525042c-5.663125,-0.658886 -11.61525,-2.925456 -11.61525,-13.023988c0,-2.877137 0.988125,-5.227166 2.624375,-7.072048c-0.286875,-0.665475 -1.1475,-3.344947 0.223125,-6.975411c0,0 2.135625,-0.707205 7.0125,2.701434c2.04,-0.586409 4.2075,-0.876319 6.375,-0.889497c2.1675,0.013178 4.335,0.303088 6.375,0.889497c4.845,-3.408639 6.980625,-2.701434 6.980625,-2.701434c1.370625,3.630464 0.51,6.309936 0.255,6.975411c1.625625,1.844882 2.61375,4.19491 2.61375,7.072048c0,10.124888 -5.960625,12.354121 -11.634375,13.002026c0.8925,0.790664 1.72125,2.407132 1.72125,4.87576c0,3.527239 -0.031875,6.36045 -0.031875,7.217003c0,0.691831 0.44625,1.515439 1.753125,1.251884c10.202125,-3.456957 17.5015,-13.340254 17.5015,-24.9696c0,-14.554801 -11.417625,-26.355457 -25.5,-26.355457"/>
 </g>
</svg>