<svg width="50" height="51" xmlns="http://www.w3.org/2000/svg">

 <g>
  <title>background</title>
  <rect fill="none" id="canvas_background" height="53" width="52" y="-1" x="-1"/>
 </g>
 <g>
  <title>Layer 1</title>
  <g stroke="null" id="svg_38">
   <rect fill="#ffffff" stroke="null" id="svg_1" height="0.988295" width="4.855133" y="26.629897" x="9.205279"/>
   <path fill="#ffffff" stroke="null" id="svg_2" d="m14.344236,14.321215c-0.886463,0 -1.608172,0.684559 -1.608172,1.527449c0,0.841966 0.721223,1.526987 1.608172,1.526987c0.886463,0 1.607686,-0.684559 1.607686,-1.526987c0,-0.842428 -0.721223,-1.527449 -1.607686,-1.527449z"/>
   <path fill="#ffffff" stroke="null" id="svg_3" d="m25.000257,20.580571c-4.354068,0 -7.897003,3.364635 -7.897003,7.50061s3.542935,7.50061 7.897003,7.50061s7.897003,-3.364635 7.897003,-7.50061s-3.542935,-7.50061 -7.897003,-7.50061z"/>
   <path fill="#ffffff" stroke="null" id="svg_4" d="m37.674148,11.148147l-25.347781,0c-1.720924,0 -3.121088,1.329882 -3.121088,2.964424l0,7.305352l5.422781,0l0,2.066603l-5.422781,0l0,0.270039l5.422781,0l0,2.066141l-5.422781,0l0,0.2705l5.422781,0l0,2.066141l-5.422781,0l0,9.731083c0,1.634541 1.400164,2.964424 3.121088,2.964424l25.347295,0c1.720924,0 3.121088,-1.329882 3.121088,-2.964424l0,-23.775859c0.000486,-1.634541 -1.399678,-2.964424 -3.120602,-2.964424zm-23.329912,6.766198c-1.199446,0 -2.175333,-0.926902 -2.175333,-2.066141c0,-1.139701 0.975887,-2.066603 2.175333,-2.066603c1.199446,0 2.175333,0.926902 2.175333,2.066603c0,1.139701 -0.975887,2.066141 -2.175333,2.066141zm10.656021,18.206602c-4.667538,0 -8.46465,-3.606515 -8.46465,-8.039764s3.797113,-8.039764 8.46465,-8.039764s8.46465,3.606515 8.46465,8.039764s-3.797113,8.039764 -8.46465,8.039764zm11.539082,-18.685285l-3.530785,0c-0.573965,0 -1.040525,-0.416367 -1.040525,-0.928748c0,-0.511458 0.466559,-0.928286 1.040525,-0.928286l3.530785,0c0.573479,0 1.040525,0.416367 1.040525,0.928286c-0.000486,0.512381 -0.467045,0.928748 -1.040525,0.928748z"/>
   <path fill="#ffffff" stroke="null" id="svg_5" d="m36.53934,16.11778l-3.530785,0c-0.256608,0 -0.472877,0.178641 -0.472877,0.389594c0,0.214646 0.211896,0.389594 0.472877,0.389594l3.530785,0c0.260982,0 0.472877,-0.174948 0.472877,-0.389594c0,-0.210953 -0.216756,-0.389594 -0.472877,-0.389594z"/>
   <rect fill="#ffffff" stroke="null" id="svg_6" height="0.988295" width="4.855133" y="21.957076" x="9.205279"/>
   <rect fill="#ffffff" stroke="null" id="svg_7" height="0.988295" width="4.855133" y="24.293717" x="9.205279"/>
   <g stroke="null" id="svg_8">
    <circle fill="#ffffff" stroke="null" id="svg_9" r="1.017463" cy="44.691555" cx="15.339563"/>
    <polygon fill="#ffffff" stroke="null" id="svg_10" points="5.757599830627441,16.68185806274414 5.275974273681641,17.608299255371094 4.198999881744385,17.756935119628906 4.978056907653809,18.478424072265625 4.79434871673584,19.49718475341797 5.757599830627441,19.016193389892578 6.720850944519043,19.49718475341797 6.536656856536865,18.478424072265625 7.316200256347656,17.756935119628906 6.239225387573242,17.608299255371094 "/>
    <polygon fill="#ffffff" stroke="null" id="svg_11" points="14.705333709716797,8.93429183959961 15.370182037353516,8.602859497070312 16.03502655029297,8.93429183959961 15.908182144165039,8.231267929077148 16.446184158325195,7.733659744262695 15.702604293823242,7.630720138549805 15.370182037353516,6.990474700927734 15.037755966186523,7.630720138549805 14.294178009033203,7.733659744262695 14.832179069519043,8.231267929077148 "/>
    <polygon fill="#ffffff" stroke="null" id="svg_12" points="42.868995666503906,35.26282501220703 43.40699768066406,35.761356353759766 43.2796630859375,36.464839935302734 43.94451141357422,36.132484436035156 44.60984420776367,36.464839935302734 44.482513427734375,35.761356353759766 45.02051544189453,35.26282501220703 44.27742385864258,35.16034698486328 43.94451141357422,34.521026611328125 43.61208724975586,35.16034698486328 "/>
    <polygon fill="#ffffff" stroke="null" id="svg_13" points="43.94451141357422,10.368036270141602 43.506141662597656,11.649911880493164 42.08750915527344,11.649911880493164 43.23495101928711,12.442485809326172 42.79658126831055,13.72343635559082 43.94451141357422,12.931785583496094 45.092445373535156,13.72343635559082 44.65407180786133,12.442485809326172 45.802001953125,11.649911880493164 44.38288497924805,11.649911880493164 "/>
    <circle fill="#ffffff" stroke="null" id="svg_14" r="1.017463" cy="7.309444" cx="40.077901"/>
    <circle fill="#ffffff" stroke="null" id="svg_15" r="0.810521" cy="26.455411" cx="44.691493"/>
    <path fill="#ffffff" stroke="null" id="svg_16" d="m8.890352,12.851928c0.632771,0 1.147444,-0.488839 1.147444,-1.089848c0,-0.600547 -0.514673,-1.089386 -1.147444,-1.089386s-1.147444,0.489301 -1.147444,1.089386c0,0.601009 0.514673,1.089848 1.147444,1.089848z"/>
    <path fill="#ffffff" stroke="null" id="svg_17" d="m12.832292,44.578c-0.15795,-0.029543 -0.313956,-0.06324 -0.468503,-0.100168l-0.059292,0.223417c0.158436,0.037852 0.31833,0.07201 0.480167,0.102938l0.047628,-0.226186z"/>
    <path fill="#ffffff" stroke="null" id="svg_18" d="m4.956673,36.99107c0.047142,0.301428 0.110808,0.604702 0.188568,0.900129l0.23571,-0.056316c-0.076302,-0.288503 -0.13851,-0.58393 -0.184194,-0.87751l-0.240084,0.033697z"/>
    <path fill="#ffffff" stroke="null" id="svg_19" d="m10.589405,43.874053l-0.104004,0.208184c0.290142,0.130634 0.590975,0.249728 0.893267,0.352666l0.082134,-0.217416c-0.295002,-0.10063 -0.588059,-0.216492 -0.871397,-0.343434z"/>
    <path fill="#ffffff" stroke="null" id="svg_20" d="m4.850725,35.625644c0,0.151406 0.003888,0.301889 0.011664,0.452372l0.242514,-0.01154c-0.007776,-0.146329 -0.011178,-0.293119 -0.011178,-0.440832c0,-0.150945 0.003888,-0.302351 0.011664,-0.454219l-0.242514,-0.01154c-0.008262,0.155561 -0.01215,0.311121 -0.01215,0.465759z"/>
    <path fill="#ffffff" stroke="null" id="svg_21" d="m8.246402,42.381686c-0.232308,-0.20126 -0.456353,-0.414059 -0.665819,-0.634706l-0.180306,0.154176c0.214326,0.226186 0.444203,0.445448 0.682343,0.650862l0.163782,-0.170332z"/>
    <path fill="#ffffff" stroke="null" id="svg_22" d="m6.016151,39.518354c-0.134622,-0.269577 -0.256122,-0.548386 -0.361098,-0.826734l-0.228906,0.07755c0.107892,0.285733 0.232308,0.571466 0.370331,0.848429l0.219672,-0.099245z"/>
    <path fill="#ffffff" stroke="null" id="svg_23" d="m6.460355,40.308159l-0.208494,0.119094c0.164754,0.261268 0.345546,0.518382 0.536543,0.763494l0.195372,-0.137097c-0.186138,-0.239111 -0.36207,-0.489762 -0.523421,-0.745491z"/>
    <path fill="#ffffff" stroke="null" id="svg_24" d="m8.829116,43.13641c0.258552,0.182795 0.528767,0.355435 0.803357,0.511919l0.125388,-0.19849c-0.267786,-0.152329 -0.531197,-0.320353 -0.783431,-0.498533l-0.145314,0.185103z"/>
    <path fill="#ffffff" stroke="null" id="svg_25" d="m4.959103,34.239446l0.240084,0.033697c0.023328,-0.14956 0.05103,-0.29912 0.08262,-0.449141l-0.23814,-0.045237c-0.032076,0.153714 -0.060264,0.306967 -0.084564,0.460681z"/>
    <path fill="#ffffff" stroke="null" id="svg_26" d="m45.23241,38.930732l-0.243,-0.004616c-0.003402,0.151868 -0.01215,0.302812 -0.02673,0.452372l0.242028,0.021234c0.015066,-0.155099 0.024786,-0.311121 0.027702,-0.46899z"/>
    <path fill="#ffffff" stroke="null" id="svg_27" d="m43.509542,43.108713c0.239598,-0.25619 0.458783,-0.531307 0.652211,-0.817963l-0.204606,-0.124633c-0.186624,0.276501 -0.398033,0.542385 -0.629369,0.789344l0.181764,0.153253z"/>
    <path fill="#ffffff" stroke="null" id="svg_28" d="m42.575937,43.641405c-0.268272,0.209107 -0.556469,0.399288 -0.855359,0.565465l0.122472,0.199413c0.310554,-0.172178 0.608957,-0.369745 0.887435,-0.586238l-0.154548,-0.178641z"/>
    <path fill="#ffffff" stroke="null" id="svg_29" d="m44.447521,41.2923l0.223074,0.091859c0.14337,-0.313429 0.261468,-0.640245 0.350406,-0.971216l-0.23571,-0.056777c-0.086022,0.318969 -0.199746,0.633783 -0.33777,0.936134z"/>
    <path fill="#ffffff" stroke="null" id="svg_30" d="m39.833929,45.145312c0.351378,-0.071087 0.699353,-0.16987 1.035665,-0.294042l-0.087966,-0.214646c-0.324162,0.119094 -0.659987,0.214184 -0.998729,0.282502l0.05103,0.226186z"/>
    <path fill="#ffffff" stroke="null" id="svg_31" d="m38.264151,45.286101c0.046656,0.000923 0.093312,0.001385 0.139968,0.001385c0.11907,0 0.237168,-0.00277 0.35478,-0.009232l-0.01215,-0.229879c-0.158436,0.007847 -0.316386,0.010617 -0.477737,0.006924l-0.00486,0.230802z"/>
    <rect fill="#ffffff" stroke="null" id="svg_32" height="0.923209" width="0.243" y="20.635041" x="44.569993"/>
    <rect fill="#ffffff" stroke="null" id="svg_33" height="0.923209" width="0.243" y="16.942205" x="44.569993"/>
    <rect fill="#ffffff" stroke="null" id="svg_34" height="0.923209" width="0.243" y="22.481458" x="44.569993"/>
    <rect fill="#ffffff" stroke="null" id="svg_35" height="0.923209" width="0.243" y="18.788623" x="44.569993"/>
   </g>
  </g>
 </g>
</svg>