<svg width="48.00000000000001" height="49" xmlns="http://www.w3.org/2000/svg">

 <g>
  <title>background</title>
  <rect fill="none" id="canvas_background" height="51" width="50" y="-1" x="-1"/>
 </g>
 <g>
  <title>Layer 1</title>
  <g stroke="null" id="svg_1">
   <g stroke="null" id="svg_2">
    <g stroke="null" id="svg_3">
     <path fill="#ffffff" stroke="null" id="svg_4" d="m46.447658,27.981169c0.2075,0.205904 0.336126,0.485949 0.336126,0.794381c0,0.308177 -0.13553,0.588986 -0.350732,0.794381l-0.006905,0.013981c-0.214582,0.198616 -0.507863,0.321565 -0.829913,0.321565c-0.321342,0 -0.6148,-0.130321 -0.829913,-0.328937l-0.014075,-0.013388c-0.2075,-0.20531 -0.335949,-0.486119 -0.335949,-0.787602c0,-0.315041 0.136239,-0.595765 0.343031,-0.80116l0.014606,-0.013303c0.214494,-0.198616 0.507863,-0.322413 0.8223,-0.322413c0.329664,0 0.623032,0.130406 0.836818,0.329022l0.014606,0.013473zm-0.357637,0.794381c0,-0.1371 -0.057275,-0.253524 -0.143232,-0.335716c-0.08516,-0.089055 -0.214405,-0.136422 -0.350555,-0.136422c-0.13553,0 -0.257162,0.047451 -0.343031,0.136422c-0.09295,0.082192 -0.143232,0.198616 -0.143232,0.335716c0,0.130321 0.050282,0.239967 0.143232,0.328937c0.085868,0.088886 0.2075,0.137015 0.343031,0.137015c0.13615,0 0.265395,-0.048129 0.350555,-0.137015c0.085957,-0.088971 0.143232,-0.198616 0.143232,-0.328937z"/>
     <path fill="#ffffff" stroke="null" id="svg_5" d="m38.307249,13.451496c3.483068,3.334705 5.643764,7.949911 5.643764,13.037169s-2.160696,9.695685 -5.643764,13.03039c-3.483865,3.334621 -8.297805,5.40213 -13.612879,5.40213c-5.322599,0 -10.136804,-2.067424 -13.620226,-5.40213c-3.483777,-3.334705 -5.637213,-7.943132 -5.637213,-13.03039s2.153348,-9.702463 5.637213,-13.037084c3.483511,-3.334621 8.297627,-5.402214 13.620226,-5.402214c5.315074,0 10.129014,2.067509 13.612879,5.40213zm4.950089,13.037169c0,-4.909402 -2.074827,-9.353444 -5.436264,-12.57164c-3.36303,-3.211079 -8.005144,-5.203598 -13.126704,-5.203598c-5.129351,0 -9.771819,1.992604 -13.127147,5.203598c-3.361879,3.218196 -5.4437,7.662239 -5.4437,12.57164c0,4.902708 2.081821,9.346665 5.4437,12.564269c3.35524,3.211587 7.997708,5.204276 13.127147,5.204276c5.121561,0 9.763675,-1.992689 13.126704,-5.204276c3.361525,-3.217688 5.436264,-7.661561 5.436264,-12.564269z"/>
     <path fill="#ffffff" stroke="null" id="svg_6" d="m39.730805,10.130942c0.164212,0.09558 0.221576,0.294196 0.128537,0.451971c-0.028505,0.05423 -0.078167,0.095665 -0.128537,0.123034l-1.258812,0.691429c-0.164743,0.095665 -0.372244,0.041435 -0.472276,-0.11634c-0.09357,-0.157097 -0.036206,-0.363085 0.128537,-0.451971l0.743248,-0.410621l-0.743248,-0.411299c-0.164743,-0.088971 -0.222107,-0.294281 -0.128537,-0.451378c0.100032,-0.157775 0.307533,-0.212598 0.472276,-0.116933l1.258812,0.692107z"/>
     <path fill="#ffffff" stroke="null" id="svg_7" d="m36.117872,29.323186l0,7.771885c0,0.178026 -0.149429,0.328429 -0.343031,0.328429l-4.435322,0c-0.192894,0 -0.350644,-0.150403 -0.350644,-0.328429l0,-6.888618c0,-0.793703 -0.04258,-1.691121 -0.357814,-2.361705c-0.286287,-0.623218 -0.829913,-1.06858 -1.838557,-1.06858c-1.043699,0 -1.637518,0.383845 -1.967359,0.95224c-0.349936,0.622456 -0.435893,1.478438 -0.435893,2.355096l0,7.011567c0,0.178026 -0.15775,0.328429 -0.34365,0.328429l-4.313247,0c-0.185901,0 -0.343031,-0.150403 -0.343031,-0.328429l0,-14.146506c0,-0.177857 0.15713,-0.328937 0.343031,-0.328937l4.127612,0c0.185812,0 0.34365,0.151081 0.34365,0.328937l0,0.999776c0.328336,-0.314956 0.736255,-0.581783 1.215524,-0.794381c0.765556,-0.34241 1.724006,-0.534332 2.847377,-0.534332c1.981169,0 3.319653,0.452056 4.213835,1.260418c0.901264,0.814463 1.337156,1.96515 1.522968,3.375462c0.043288,0.308347 0.07197,0.643978 0.086665,0.999691c0.020892,0.355883 0.027885,0.712189 0.027885,1.067987zm-0.693055,7.442863l0,-7.442863c0,-0.369779 -0.007613,-0.718883 -0.02222,-1.033839c-0.014075,-0.32165 -0.042669,-0.643216 -0.085337,-0.951478c-0.164832,-1.25974 -0.543449,-2.280106 -1.309183,-2.971536c-0.765556,-0.698716 -1.953107,-1.081968 -3.741559,-1.081968c-1.022807,0 -1.881225,0.171247 -2.554097,0.465444c-0.700668,0.308177 -1.201537,0.746252 -1.488001,1.266434c-0.057275,0.109646 -0.178819,0.171163 -0.300451,0.17845l-0.06418,0c-0.192894,0 -0.350821,-0.151081 -0.350821,-0.335631l0,-1.574781l-3.426059,0l0,13.481683l3.611959,0l0,-6.68246c0,-0.965628 0.100652,-1.931257 0.522469,-2.670815c0.451384,-0.780315 1.237921,-1.300582 2.575077,-1.300582c1.345477,0 2.074827,0.615847 2.46876,1.458356c0.371536,0.794381 0.421994,1.773313 0.421994,2.635904l0,6.559596l3.741647,0l0,0.000085z"/>
     <path fill="#ffffff" stroke="null" id="svg_8" d="m35.45279,44.297967c0.185812,0 0.343739,0.151081 0.343739,0.335631c0,0.185313 -0.157927,0.329022 -0.343739,0.329022l-1.802262,0c-0.192805,0 -0.343739,-0.143709 -0.343739,-0.329022c0,-0.184551 0.150934,-0.335631 0.343739,-0.335631l1.802262,0z"/>
     <path fill="#ffffff" stroke="null" id="svg_9" d="m34.251253,45.18869c0.185812,0 0.34365,0.150403 0.34365,0.328259c0,0.185313 -0.157838,0.329022 -0.34365,0.329022l-3.849115,0c-0.192805,0 -0.350024,-0.143709 -0.350024,-0.329022c0,-0.177857 0.157219,-0.328259 0.350024,-0.328259l3.849115,0z"/>
     <path fill="#ffffff" stroke="null" id="svg_10" d="m19.128685,22.948565l0,14.146421c0,0.178026 -0.15713,0.328429 -0.350644,0.328429l-5.164583,0c-0.19316,0 -0.350732,-0.150403 -0.350732,-0.328429l0,-14.146421c0,-0.177857 0.157573,-0.328937 0.350732,-0.328937l5.164583,0c0.193425,0.000085 0.350644,0.151165 0.350644,0.328937zm-0.693675,13.817484l0,-13.481768l-4.478168,0l0,3.423591l0,10.058092l4.478168,0l0,0.000085z"/>
     <path fill="#ffffff" stroke="null" id="svg_11" d="m19.128685,18.354204c0,0.760318 -0.321962,1.458441 -0.836818,1.965235l-0.021688,0.020675c-0.529463,0.506201 -1.265806,0.821072 -2.074473,0.821072c-0.808225,0 -1.544922,-0.314956 -2.074473,-0.821072c-0.529463,-0.506794 -0.858595,-1.212289 -0.858595,-1.985995c0,-0.773621 0.329044,-1.479031 0.858595,-1.985995c0.529551,-0.506116 1.266248,-0.820987 2.074473,-0.820987c0.808667,0 1.544922,0.314956 2.074473,0.820987c0.529463,0.507048 0.858507,1.212458 0.858507,1.98608zm-1.330871,1.499876c0.393667,-0.383845 0.637108,-0.918093 0.637108,-1.499876c0,-0.595765 -0.2507,-1.130012 -0.658442,-1.519958c-0.400571,-0.38376 -0.965798,-0.623134 -1.580863,-0.623134c-0.622059,0 -1.180203,0.239373 -1.580863,0.623134c-0.407565,0.389946 -0.657999,0.924109 -0.657999,1.519958c0,0.589155 0.250435,1.130097 0.650741,1.513179c0.408007,0.390454 0.966152,0.629912 1.58821,0.629912c0.622413,0 1.180292,-0.239373 1.58821,-0.629912l0.013898,-0.013303z"/>
     <path fill="#ffffff" stroke="null" id="svg_12" d="m12.862419,5.926357c0.049662,0.17845 -0.064534,0.356391 -0.2507,0.404435l-0.6148,0.157182c-0.178819,0.048129 -0.372332,-0.054823 -0.422348,-0.232679c-0.042934,-0.177941 0.064623,-0.356476 0.243441,-0.404012l0.622059,-0.15769c0.178907,-0.047451 0.372067,0.054823 0.422348,0.232764z"/>
     <path fill="#ffffff" stroke="null" id="svg_13" d="m12.218318,43.141179c0.171825,0.157097 0.271769,0.376473 0.271769,0.615847c0,0.246745 -0.099855,0.466122 -0.271769,0.623218c-0.164478,0.157775 -0.393312,0.260049 -0.643747,0.260049c-0.257428,0 -0.486528,-0.102274 -0.650741,-0.260049c-0.164832,-0.157097 -0.264776,-0.376473 -0.264776,-0.623218c0,-0.239289 0.099855,-0.458665 0.264776,-0.615847c0.164124,-0.157775 0.393224,-0.260049 0.650741,-0.260049c0.250435,0 0.479269,0.102274 0.643747,0.260049zm-0.421906,0.615847c0,-0.054738 -0.021688,-0.108883 -0.064357,-0.150403c-0.043288,-0.040672 -0.100209,-0.061517 -0.157484,-0.061517c-0.064623,0 -0.121544,0.02076 -0.157484,0.061517c-0.04258,0.04152 -0.071262,0.095665 -0.071262,0.150403c0,0.062195 0.028682,0.11634 0.071262,0.151165c0.035941,0.040757 0.092862,0.068211 0.157484,0.068211c0.057275,0 0.114196,-0.027369 0.157484,-0.068211c0.042669,-0.034826 0.064357,-0.088971 0.064357,-0.151165z"/>
     <path fill="#ffffff" stroke="null" id="svg_14" d="m11.996919,7.350566c0.049573,0.178534 -0.057275,0.356391 -0.243441,0.403927c-0.178907,0.048129 -0.372067,-0.05423 -0.422348,-0.232679l-0.15713,-0.575089c-0.050282,-0.177857 0.057275,-0.355713 0.243087,-0.403927c0.186166,-0.048129 0.372332,0.054823 0.421906,0.232679l0.157927,0.575089z"/>
     <path fill="#ffffff" stroke="null" id="svg_15" d="m11.524643,5.652751c0.049928,0.177941 -0.057187,0.362492 -0.243087,0.410621c-0.186166,0.041435 -0.372421,-0.061517 -0.422348,-0.239289l-0.157573,-0.555092c-0.049928,-0.171163 0.064268,-0.355713 0.243087,-0.403842c0.186255,-0.040842 0.379326,0.061517 0.429696,0.239967l0.150225,0.547636z"/>
     <path fill="#ffffff" stroke="null" id="svg_16" d="m11.138324,6.36494c0.049928,0.177941 -0.057275,0.355798 -0.243087,0.410621l-0.62976,0.157859c-0.186255,0.047451 -0.371978,-0.054823 -0.421994,-0.233442c-0.049928,-0.177857 0.056921,-0.355713 0.243087,-0.403927l0.62976,-0.163876c0.185812,-0.048044 0.371713,0.061602 0.421994,0.232764z"/>
     <polygon fill="#ffffff" stroke="null" id="svg_17" points="3.440979480743408,25.18062800168991 3.627232074737549,25.77656191587448 2.969144344329834,25.96162050962448 2.7829785346984863,25.372633159160614 "/>
     <polygon fill="#ffffff" stroke="null" id="svg_18" points="2.969144344329834,25.96162050962448 3.1549570560455322,26.556795299053192 2.4968693256378174,26.748718440532684 2.3111448287963867,26.1529523730278 "/>
     <polygon fill="#ffffff" stroke="null" id="svg_19" points="2.5968127250671387,24.776870906352997 2.7829785346984863,25.372633159160614 2.1248908042907715,25.55718630552292 1.938726782798767,24.968620479106903 "/>
     <polygon fill="#ffffff" stroke="null" id="svg_20" points="2.117543935775757,25.55718630552292 2.303797960281372,26.1529523730278 1.645355224609375,26.344877421855927 1.4594560861587524,25.7490274310112 "/>
    </g>
   </g>
  </g>
 </g>
</svg>