<svg xmlns="http://www.w3.org/2000/svg" xmlns:xlink="http://www.w3.org/1999/xlink" version="1.1" x="0px" y="0px" viewBox="0 0 52 65" enable-background="new 0 0 52 52" xml:space="preserve"><g><g><g><path d="M25.9951172,32.9960938c-1.8662109,0-3.6230469-0.7285156-4.9462891-2.0527344     c-1.3232422-1.3095703-2.0537109-3.0683594-2.0537109-4.9472656s0.7304688-3.6376953,2.0576172-4.9511719     c1.3193359-1.3203125,3.0761719-2.0488281,4.9423828-2.0488281c1.828125,0,3.5517578,0.6992188,4.8652344,1.9716797     c0.0322266,0.0253906,0.0634766,0.0517578,0.0917969,0.0810547c1.3173828,1.3173828,2.0429688,3.0742188,2.0429688,4.9472656     c0,1.890625-0.7314453,3.6494141-2.0585938,4.9541016C29.6191406,32.2675781,27.8613281,32.9960938,25.9951172,32.9960938z      M25.9951172,20.9960938c-1.3320313,0-2.5859375,0.5205078-3.5322266,1.4667969     c-0.9472656,0.9384766-1.4677734,2.1923828-1.4677734,3.5332031s0.5205078,2.5947266,1.4638672,3.5292969     c0.9501953,0.9501953,2.2041016,1.4707031,3.5361328,1.4707031s2.5869141-0.5205078,3.5332031-1.4667969     c0.9482422-0.9316406,1.4667969-2.1835938,1.4667969-3.5332031c0-1.3056641-0.4921875-2.53125-1.3876953-3.4619141     c-0.0273438-0.0224609-0.0537109-0.0458984-0.0791016-0.0712891     C28.5820313,21.5166016,27.3271484,20.9960938,25.9951172,20.9960938z"/></g></g><g><g><path d="M45,12c-2.7568359,0-5-2.2431641-5-5s2.2431641-5,5-5s5,2.2431641,5,5S47.7568359,12,45,12z M45,4     c-1.6542969,0-3,1.3457031-3,3s1.3457031,3,3,3s3-1.3457031,3-3S46.6542969,4,45,4z"/></g></g><g><g><path d="M46,29.9960938c-2.2060547,0-4-1.7939453-4-4s1.7939453-4,4-4s4,1.7939453,4,4S48.2060547,29.9960938,46,29.9960938z      M46,23.9960938c-1.1025391,0-2,0.8974609-2,2s0.8974609,2,2,2s2-0.8974609,2-2S47.1025391,23.9960938,46,23.9960938z"/></g></g><g><g><path d="M6,29.9960938c-2.2060547,0-4-1.7939453-4-4s1.7939453-4,4-4s4,1.7939453,4,4S8.2060547,29.9960938,6,29.9960938z      M6,23.9960938c-1.1025391,0-2,0.8974609-2,2s0.8974609,2,2,2s2-0.8974609,2-2S7.1025391,23.9960938,6,23.9960938z"/></g></g><g><g><path d="M45,50c-2.7568359,0-5-2.2431641-5-5s2.2431641-5,5-5s5,2.2431641,5,5S47.7568359,50,45,50z M45,42     c-1.6542969,0-3,1.3457031-3,3s1.3457031,3,3,3s3-1.3457031,3-3S46.6542969,42,45,42z"/></g></g><g><g><path d="M7,12c-2.7568359,0-5-2.2431641-5-5s2.2431641-5,5-5s5,2.2431641,5,5S9.7568359,12,7,12z M7,4     C5.3457031,4,4,5.3457031,4,7s1.3457031,3,3,3s3-1.3457031,3-3S8.6542969,4,7,4z"/></g></g><g><g><path d="M7,50c-2.7568359,0-5-2.2431641-5-5s2.2431641-5,5-5s5,2.2431641,5,5S9.7568359,50,7,50z M7,42     c-1.6542969,0-3,1.3457031-3,3s1.3457031,3,3,3s3-1.3457031,3-3S8.6542969,42,7,42z"/></g></g><g><g><path d="M21.7558594,22.7558594c-0.2558594,0-0.5117188-0.0976563-0.7070313-0.2929688L9.1171875,10.53125     c-0.390625-0.390625-0.390625-1.0234375,0-1.4140625s1.0234375-0.390625,1.4140625,0l11.9316406,11.9316406     c0.390625,0.390625,0.390625,1.0234375,0,1.4140625C22.2675781,22.6582031,22.0117188,22.7558594,21.7558594,22.7558594z"/></g></g><g><g><path d="M30.2451172,22.7558594c-0.2558594,0-0.5117188-0.0976563-0.7070313-0.2929688     c-0.390625-0.3896484-0.390625-1.0234375,0-1.4140625L41.3515625,9.2285156c0.390625-0.390625,1.0234375-0.390625,1.4140625,0     c0.390625,0.3896484,0.390625,1.0234375,0,1.4140625L30.9521484,22.4628906     C30.7568359,22.6582031,30.5009766,22.7558594,30.2451172,22.7558594z"/></g></g><g><g><path d="M9.8203125,43.1708984c-0.2558594,0-0.5117188-0.0976563-0.7070313-0.2929688     c-0.390625-0.390625-0.390625-1.0234375,0-1.4140625l11.9355469-11.9345703c0.390625-0.390625,1.0234375-0.390625,1.4140625,0     s0.390625,1.0234375,0,1.4140625L10.5273438,42.8779297C10.3320313,43.0732422,10.0761719,43.1708984,9.8203125,43.1708984z"/></g></g><g><g><path d="M42.1386719,43.1386719c-0.2558594,0-0.5117188-0.0976563-0.7070313-0.2929688L29.5283203,30.9433594     c-0.390625-0.390625-0.390625-1.0234375,0-1.4140625s1.0234375-0.390625,1.4140625,0l11.9033203,11.9023438     c0.390625,0.390625,0.390625,1.0234375,0,1.4140625C42.6503906,43.0410156,42.3945313,43.1386719,42.1386719,43.1386719z"/></g></g><g><g><path d="M43,26.9960938H31.9951172c-0.5527344,0-1-0.4472656-1-1s0.4472656-1,1-1H43c0.5527344,0,1,0.4472656,1,1     S43.5527344,26.9960938,43,26.9960938z"/></g></g><g><g><path d="M20,26.9960938H8.9951172c-0.5527344,0-1-0.4472656-1-1s0.4472656-1,1-1H20c0.5527344,0,1,0.4472656,1,1     S20.5527344,26.9960938,20,26.9960938z"/></g></g></g><text x="0" y="67" fill="#000000" font-size="5px" font-weight="bold" font-family="'Helvetica Neue', Helvetica, Arial-Unicode, Arial, Sans-serif">Created by Graphic Tigers</text><text x="0" y="72" fill="#000000" font-size="5px" font-weight="bold" font-family="'Helvetica Neue', Helvetica, Arial-Unicode, Arial, Sans-serif">from the Noun Project</text></svg>