<svg width="30" height="30" xmlns="http://www.w3.org/2000/svg">
 <!-- Created with Method Draw - http://github.com/duopixel/Method-Draw/ -->

 <g>
  <title>background</title>
  <rect fill="none" id="canvas_background" height="32" width="32" y="-1" x="-1"/>
  <g display="none" overflow="visible" y="0" x="0" height="100%" width="100%" id="canvasGrid">
   <rect fill="url(#gridpattern)" stroke-width="0" y="0" x="0" height="100%" width="100%"/>
  </g>
 </g>
 <g>
  <title>Layer 1</title>
  <g stroke="null" id="svg_14">
   <g stroke="null" transform="matrix(0.09813607552826077,0,0,0.10939841413474828,6.040916107497358,85.30357937564631) " id="svg_4">
    <g stroke="null" id="svg_5">
     <path stroke="null" id="svg_6" d="m146.790843,-609.970032l0,-7.229c9.768,0 18.946,-3.799 25.846,-10.697c6.899,-6.915 10.701,-16.096 10.701,-25.847l0,-36.547l-185.543,0l0,36.546c0,9.751 3.801,18.932 10.702,25.851c6.898,6.895 16.078,10.694 25.844,10.694l0,7.229c-11.697,0 -22.69,-4.551 -30.958,-12.815c-8.266,-8.287 -12.817,-19.281 -12.817,-30.959l0,-43.775l200,0l0,43.775c0,11.68 -4.551,22.674 -12.815,30.956c-8.269,8.267 -19.263,12.818 -30.96,12.818z" fill="#ffffff"/>
     <rect stroke="null" id="svg_7" height="7.229" width="80.321" fill="#ffffff" y="-617.199032" x="50.404843"/>
     <path stroke="null" id="svg_8" d="m170.886843,-529.652032l-160.642,0c-5.254,0 -10.195,-2.046 -13.914,-5.761c-3.718,-3.719 -5.765,-8.662 -5.765,-13.917l0,-64.258l7.229,0l0,64.258c0,3.325 1.296,6.452 3.647,8.805c2.352,2.351 5.478,3.645 8.802,3.645l160.643,0c3.324,0 6.451,-1.294 8.806,-3.646c2.349,-2.352 3.645,-5.479 3.645,-8.804l0,-64.258l7.228,0l0,64.258c0,5.255 -2.047,10.198 -5.762,13.916c-3.721,3.716 -8.663,5.762 -13.917,5.762z" fill="#ffffff"/>
     <path stroke="null" id="svg_9" d="m135.947843,-693.909032l-7.229,0l0,-12.852c0,-2.038 -0.794,-3.953 -2.235,-5.395c-1.44,-1.442 -3.357,-2.235 -5.395,-2.235l-61.045,0c-2.038,0 -3.955,0.793 -5.396,2.235c-1.44,1.442 -2.234,3.357 -2.234,5.395l0,12.852l-7.229,0l0,-12.852c0,-3.967 1.545,-7.698 4.35,-10.506c2.808,-2.808 6.54,-4.354 10.509,-4.354l61.044,0c3.969,0 7.701,1.545 10.507,4.354c2.807,2.808 4.353,6.539 4.353,10.506l0,12.852z" fill="#ffffff"/>
     <path stroke="null" id="svg_10" d="m54.019843,-593.909032l-23.293,0l0,-39.357l23.293,0l0,39.357zm-16.064,-7.229l8.835,0l0,-24.899l-8.835,0l0,24.899z" fill="#ffffff"/>
     <path stroke="null" id="svg_11" d="m150.405843,-593.909032l-23.294,0l0,-39.357l23.294,0l0,39.357zm-16.065,-7.229l8.835,0l0,-24.899l-8.835,0l0,24.899z" fill="#ffffff"/>
    </g>
   </g>
  </g>
 </g>
</svg>