<svg width="29.999999999999996" height="29.999999999999996" xmlns="http://www.w3.org/2000/svg">
 <!-- Created with Method Draw - http://github.com/duopixel/Method-Draw/ -->

 <g>
  <title>background</title>
  <rect fill="none" id="canvas_background" height="32" width="32" y="-1" x="-1"/>
  <g display="none" overflow="visible" y="0" x="0" height="100%" width="100%" id="canvasGrid">
   <rect fill="url(#gridpattern)" stroke-width="0" y="0" x="0" height="100%" width="100%"/>
  </g>
 </g>
 <g>
  <title>Layer 1</title>
  <g id="svg_34">
   <g stroke="null" id="svg_35">
    <path fill="#ffffff" stroke="null" id="svg_4" d="m22.603959,19.52634c-1.387834,0 -2.572251,0.860987 -3.03519,2.066176l-2.834069,-0.810435c0.161422,-0.559609 0.249351,-1.14208 0.249351,-1.738717c0,-1.88522 -0.845824,-3.576284 -2.179195,-4.741546l2.892142,-2.260011c0.777909,0.720924 1.79631,1.1292 2.891485,1.1292c1.241177,0 2.38491,-0.521937 3.190378,-1.433798l0.011483,0.013523l0.184388,-0.240845l0.118442,-0.154553l-0.005578,-0.00644c0.47836,-0.689047 0.73296,-1.489823 0.73296,-2.330847c0,-2.289955 -1.898675,-4.152958 -4.232074,-4.152958c-2.333071,0 -4.231418,1.863003 -4.231418,4.152958c0,0.841668 0.254928,1.642444 0.73296,2.331169l-0.005249,0.006118l0.116145,0.151333c0.000656,0.001288 0.00164,0.002576 0.002625,0.003864l0.143705,0.187395l-2.931185,2.290277c-1.043336,-0.778559 -2.330446,-1.253486 -3.729764,-1.291159l-0.615503,-1.760934c0.480657,-0.143605 0.91538,-0.407311 1.263815,-0.776305l0.011483,0.013523l0.184388,-0.240845l0.118442,-0.154553l-0.005578,-0.00644c0.303158,-0.457862 0.463268,-0.984629 0.463268,-1.536189c0,-1.559372 -1.292687,-2.82767 -2.881643,-2.82767c-1.588627,0 -2.880987,1.268298 -2.880987,2.82767c0,0.552526 0.160109,1.079293 0.46294,1.536189l-0.005249,0.006118l0.116145,0.151333c0.000656,0.001288 0.00164,0.002576 0.002625,0.003864l0.184716,0.240523l0.011483,-0.013201c0.54365,0.576675 1.296296,0.903489 2.108655,0.903489c0.122379,0 0.243117,-0.008372 0.362215,-0.023183l0.581709,1.664661c-3.412498,0.174194 -6.136984,2.946482 -6.136984,6.338269c0,1.322069 0.411101,2.579419 1.182448,3.652916l-0.005578,0.00644l0.118442,0.154553l0.184388,0.240845l0.005906,-0.006762c1.235599,1.469538 3.036831,2.307664 4.990626,2.307664s3.755027,-0.838126 4.990626,-2.307664l0.005906,0.006762l0.184388,-0.240845l0.118442,-0.154553l-0.005578,-0.006118c0.326781,-0.454964 0.587943,-0.942771 0.780534,-1.455049l2.845552,0.813333c-0.045605,0.212188 -0.070212,0.431781 -0.070212,0.657171c0,0.630446 0.185701,1.230947 0.536104,1.750953l-0.005249,0.006118l0.115817,0.151333c0.000984,0.001288 0.001969,0.002576 0.002953,0.003864l0.184716,0.240523l0.011483,-0.013201c0.61419,0.66683 1.471826,1.04645 2.400658,1.04645c0.928504,0 1.786139,-0.379942 2.400986,-1.046772l0.011483,0.013523l0.184388,-0.240845l0.118442,-0.154553l-0.005578,-0.00644c0.350404,-0.520327 0.536432,-1.120829 0.536432,-1.750631c-0.000328,-1.756748 -1.456406,-3.186038 -3.24681,-3.186038zm-2.01482,-6.837989c-1.114533,0 -2.144089,-0.472352 -2.857036,-1.302428c0.014436,-0.011913 0.028872,-0.024149 0.044293,-0.036062s0.030841,-0.024149 0.047574,-0.036062c0.026576,-0.019963 0.054792,-0.03896 0.083664,-0.058279c0.016733,-0.011269 0.032809,-0.022539 0.04987,-0.033486c0.032153,-0.020607 0.065619,-0.040892 0.09974,-0.060855c0.016405,-0.00966 0.031825,-0.019641 0.047902,-0.028979c0.041996,-0.024149 0.085632,-0.047976 0.129925,-0.071803c0.009843,-0.005474 0.019357,-0.010625 0.0292,-0.016099c0.055776,-0.029301 0.113192,-0.057957 0.171265,-0.086292c0.006562,-0.00322 0.013124,-0.00644 0.020014,-0.009338c0.050854,-0.024471 0.102693,-0.04862 0.155188,-0.072447c0.020014,-0.009016 0.039699,-0.017709 0.059713,-0.026403c0.039699,-0.017709 0.079399,-0.034774 0.119426,-0.05184c0.022967,-0.009982 0.046589,-0.019641 0.069556,-0.029301c0.037075,-0.015133 0.074477,-0.030589 0.111224,-0.0454c0.024279,-0.00966 0.04823,-0.019319 0.072509,-0.028979c0.035762,-0.013845 0.071524,-0.028013 0.106958,-0.041536c0.024279,-0.009016 0.04823,-0.018353 0.072509,-0.027369c0.034122,-0.012557 0.067915,-0.025115 0.101381,-0.03735c0.024935,-0.008694 0.04987,-0.018031 0.074477,-0.026725c0.031169,-0.010947 0.061353,-0.021573 0.09121,-0.032198c0.024935,-0.008694 0.04987,-0.017387 0.074149,-0.025759c0.029856,-0.009982 0.058729,-0.019641 0.086945,-0.029301c0.021982,-0.007084 0.044293,-0.014489 0.065291,-0.021251c0.0292,-0.009338 0.056432,-0.018353 0.083992,-0.027047c0.019357,-0.006118 0.038715,-0.012557 0.057088,-0.018353c0.026247,-0.00805 0.04987,-0.015455 0.074477,-0.022539c0.017389,-0.005474 0.035434,-0.010947 0.051511,-0.015777c0.038059,-0.011269 0.073821,-0.021573 0.105318,-0.030589l0.178483,-0.05023l0,-0.851971l-0.156829,-0.059889c-0.619768,-0.237303 -1.03579,-0.897049 -1.03579,-1.642122c0,-0.955007 0.679809,-1.731956 1.515463,-1.731956c0.835982,0 1.515791,0.776949 1.515791,1.731956c0,0.744751 -0.41635,1.404819 -1.03579,1.6418l-0.156829,0.060211l0,0.851971l0.178483,0.049908c0.031825,0.008694 0.067587,0.019319 0.105318,0.030589c0.016077,0.00483 0.034122,0.010304 0.050526,0.015455c0.024607,0.007406 0.048886,0.014811 0.075461,0.022861c0.018045,0.005796 0.037075,0.011913 0.055776,0.018031c0.027888,0.008694 0.055776,0.017709 0.085632,0.027369c0.02067,0.006762 0.041996,0.013845 0.063322,0.020929c0.0292,0.00966 0.058729,0.019641 0.088913,0.029945c0.023623,0.00805 0.047902,0.016743 0.072837,0.025115c0.030185,0.010625 0.061025,0.021251 0.092194,0.03252c0.023951,0.008694 0.048558,0.017709 0.073493,0.026725c0.034122,0.012235 0.068243,0.024793 0.102693,0.037672c0.023295,0.008694 0.047245,0.018031 0.070868,0.027047c0.03609,0.013523 0.072509,0.027691 0.108599,0.04218c0.023623,0.009016 0.047574,0.018353 0.071196,0.028013c0.037731,0.015133 0.07579,0.031233 0.114176,0.04701c0.021982,0.009016 0.044293,0.018353 0.065947,0.027369c0.041668,0.018031 0.083336,0.036062 0.124675,0.054415c0.018373,0.00805 0.036746,0.016099 0.054792,0.024149c0.05512,0.024793 0.109583,0.05023 0.163062,0.075988c0.004265,0.001932 0.008202,0.003864 0.012139,0.005796c0.058729,0.028335 0.116145,0.057635 0.172249,0.086936c0.00853,0.004508 0.016405,0.009016 0.024935,0.013523c0.045933,0.024471 0.090554,0.048942 0.133862,0.073734c0.016077,0.009338 0.031169,0.018675 0.046917,0.028013c0.03445,0.020285 0.068571,0.041214 0.101381,0.061821c0.017061,0.010947 0.033137,0.021895 0.049214,0.033164c0.028872,0.019641 0.057416,0.03896 0.08432,0.058923c0.016405,0.011913 0.031497,0.023827 0.046917,0.036062c0.015748,0.011913 0.030185,0.023827 0.044621,0.036062c-0.713931,0.830399 -1.743815,1.30275 -2.858348,1.30275zm-3.739606,-3.670303c0,-2.023674 1.677541,-3.669981 3.739278,-3.669981c2.062394,0 3.739935,1.646308 3.739935,3.669981c0,0.709654 -0.202762,1.388398 -0.588927,1.978274c-0.001969,-0.00161 -0.004921,-0.00322 -0.00689,-0.00483c-0.073493,-0.058601 -0.155188,-0.114949 -0.240492,-0.170008c-0.014108,-0.009016 -0.027888,-0.018353 -0.042324,-0.027369c-0.084976,-0.052805 -0.173561,-0.104323 -0.266412,-0.153909c-0.017061,-0.009016 -0.033794,-0.018031 -0.050854,-0.027047c-0.093835,-0.049264 -0.189638,-0.096917 -0.287082,-0.142317c-0.012796,-0.006118 -0.025919,-0.011591 -0.038715,-0.017709c-0.097116,-0.044434 -0.194559,-0.087258 -0.291347,-0.127506c-0.007218,-0.00322 -0.015092,-0.006762 -0.02231,-0.00966c-0.09974,-0.041214 -0.196856,-0.079208 -0.292003,-0.115271c-0.016405,-0.00644 -0.032809,-0.012557 -0.048886,-0.018675c-0.090226,-0.033808 -0.176842,-0.065363 -0.259194,-0.094342c-0.017061,-0.006118 -0.032809,-0.011269 -0.049214,-0.017065c-0.080383,-0.028013 -0.155844,-0.053127 -0.224088,-0.075344c-0.011811,-0.004186 -0.021326,-0.006762 -0.033137,-0.010625c-0.068243,-0.021895 -0.131565,-0.04218 -0.183076,-0.057957l0,-0.168076c0.719508,-0.352573 1.192619,-1.14369 1.192619,-2.023674c0,-1.221288 -0.900616,-2.214933 -2.00793,-2.214933c-1.106987,0 -2.007602,0.993645 -2.007602,2.214933c0,0.879662 0.472782,1.671101 1.192619,2.023674l0,0.168076c-0.052167,0.016099 -0.116145,0.036062 -0.186029,0.058923c-0.009843,0.00322 -0.018045,0.006118 -0.028216,0.009016c-0.069556,0.022539 -0.14633,0.04862 -0.228353,0.076954c-0.014764,0.005152 -0.028872,0.009982 -0.043964,0.015455c-0.08432,0.029623 -0.172905,0.061499 -0.266084,0.096595c-0.012796,0.00483 -0.025591,0.00966 -0.038715,0.014811c-0.097772,0.037028 -0.198168,0.07631 -0.300533,0.118812c-0.004265,0.001932 -0.008202,0.003542 -0.012468,0.005474c-0.101381,0.04218 -0.203418,0.086936 -0.305127,0.133624c-0.009843,0.00483 -0.019686,0.008694 -0.029528,0.013523c-0.099412,0.046044 -0.196856,0.094663 -0.292331,0.144571c-0.015748,0.008372 -0.031497,0.016421 -0.046917,0.024793c-0.093178,0.049908 -0.183404,0.101747 -0.26838,0.155197c-0.01378,0.008694 -0.026904,0.017387 -0.040355,0.026081c-0.086289,0.055381 -0.167984,0.112373 -0.241477,0.170652c-0.002297,0.00161 -0.004921,0.00322 -0.00689,0.00483c-0.38551,-0.589232 -0.588599,-1.267654 -0.588599,-1.977952zm-5.234399,-0.782423c0,0.422766 -0.112864,0.828789 -0.328421,1.18748c-0.026576,-0.019319 -0.05676,-0.037028 -0.085304,-0.055703c-0.019686,-0.012879 -0.038059,-0.025759 -0.058401,-0.038316c-0.058072,-0.03574 -0.118442,-0.070193 -0.181107,-0.103357c-0.008859,-0.00483 -0.017389,-0.009982 -0.026247,-0.014811c-0.073821,-0.038316 -0.149282,-0.0747 -0.225728,-0.109797c-0.018045,-0.00805 -0.035434,-0.015455 -0.053479,-0.023505c-0.058072,-0.025437 -0.115161,-0.049908 -0.171921,-0.073413c-0.025263,-0.010304 -0.049214,-0.019963 -0.074477,-0.029623c-0.049542,-0.019963 -0.0981,-0.038316 -0.145673,-0.056025c-0.023951,-0.009016 -0.047245,-0.017709 -0.070212,-0.026081c-0.047902,-0.017387 -0.09285,-0.032842 -0.136815,-0.047654c-0.018045,-0.006118 -0.03609,-0.012557 -0.053151,-0.018353c-0.057416,-0.019319 -0.110896,-0.036384 -0.1565,-0.050552l0,-0.001288c0.477704,-0.257266 0.788408,-0.793692 0.788408,-1.387432c0,-0.096917 -0.010499,-0.190615 -0.025919,-0.282381c-0.004921,-0.028335 -0.011811,-0.055059 -0.018045,-0.08275c-0.014436,-0.064397 -0.032153,-0.127506 -0.053479,-0.188361c-0.009843,-0.027691 -0.019357,-0.054737 -0.030513,-0.081784c-0.027232,-0.066007 -0.059057,-0.129116 -0.094163,-0.190293c-0.008859,-0.015455 -0.016405,-0.032198 -0.025919,-0.04701c-0.046261,-0.073734 -0.098428,-0.142317 -0.155188,-0.206392c-0.01542,-0.017065 -0.032153,-0.031876 -0.047902,-0.047654c-0.044621,-0.045722 -0.090882,-0.088224 -0.140752,-0.127506c-0.021982,-0.017709 -0.044949,-0.033808 -0.067915,-0.049908c-0.050198,-0.034774 -0.102693,-0.065685 -0.157157,-0.093698c-0.021654,-0.010947 -0.042652,-0.023505 -0.064962,-0.033486c-0.008202,-0.003864 -0.015748,-0.009016 -0.023951,-0.012557c1.076146,0.227965 1.884896,1.169126 1.884896,2.292209zm-4.366264,1.13242c-0.027888,0.018675 -0.057416,0.036062 -0.083664,0.055059c-0.215557,-0.358047 -0.328421,-0.76407 -0.328421,-1.18748c0,-1.122761 0.808422,-2.063922 1.883911,-2.291887c-0.008202,0.003542 -0.016077,0.008694 -0.024279,0.012557c-0.021982,0.009982 -0.042652,0.022217 -0.064306,0.033486c-0.054463,0.027691 -0.107286,0.058923 -0.157485,0.093698c-0.022967,0.016099 -0.045605,0.03252 -0.067587,0.049586c-0.04987,0.039282 -0.096787,0.082428 -0.141736,0.12815c-0.01542,0.015777 -0.032153,0.030267 -0.047245,0.04701c-0.057088,0.064075 -0.109255,0.132658 -0.155516,0.206714c-0.009187,0.014811 -0.016405,0.031233 -0.024935,0.046366c-0.035434,0.061177 -0.067587,0.12493 -0.095147,0.191581c-0.010827,0.026725 -0.02067,0.053771 -0.030185,0.08114c-0.021326,0.061177 -0.039043,0.124286 -0.053479,0.189005c-0.006234,0.027369 -0.013124,0.054093 -0.018045,0.082106c-0.01542,0.091766 -0.025919,0.185785 -0.025919,0.282703c0,0.59374 0.310704,1.130166 0.78808,1.387432l0,0.001288c-0.045605,0.014167 -0.099084,0.031554 -0.1565,0.050552c-0.017061,0.005796 -0.034778,0.011913 -0.052495,0.018031c-0.044293,0.015133 -0.089241,0.031233 -0.137799,0.048298c-0.022967,0.00805 -0.045605,0.016743 -0.0689,0.025437c-0.04823,0.017709 -0.097444,0.036706 -0.14797,0.056669c-0.024279,0.00966 -0.047902,0.018997 -0.072181,0.028979c-0.058072,0.023505 -0.116145,0.04862 -0.174874,0.0747c-0.017061,0.007406 -0.034122,0.014489 -0.050854,0.021895c-0.076118,0.034774 -0.152235,0.071803 -0.225728,0.110119c-0.008859,0.00483 -0.017389,0.009982 -0.026247,0.014811c-0.06201,0.033164 -0.122707,0.067617 -0.180779,0.103357c-0.02067,0.012235 -0.039699,0.025759 -0.059713,0.038638zm1.976762,1.212594c-0.683418,0 -1.316638,-0.277551 -1.769079,-0.769221c0.050526,-0.036384 0.106302,-0.072769 0.167656,-0.108187c0.016405,-0.009338 0.03445,-0.018353 0.051511,-0.027369c0.049542,-0.027369 0.100725,-0.054737 0.154532,-0.080818c0.028544,-0.013845 0.058072,-0.027047 0.087601,-0.04057c0.044949,-0.020607 0.089569,-0.041214 0.135831,-0.060855c0.032153,-0.013845 0.064306,-0.027047 0.096459,-0.039926c0.044293,-0.018353 0.088257,-0.03574 0.131893,-0.052484c0.031825,-0.012235 0.062994,-0.024149 0.094163,-0.035418c0.043964,-0.016421 0.086617,-0.031876 0.128613,-0.046366c0.02756,-0.00966 0.055448,-0.019963 0.081695,-0.028657c0.044621,-0.015133 0.085632,-0.028335 0.125332,-0.041214c0.019357,-0.006118 0.040684,-0.013201 0.058729,-0.018997c0.05512,-0.017387 0.105646,-0.03252 0.14633,-0.04379l0.178483,-0.049908l0,-0.680354l-0.156829,-0.059889c-0.377635,-0.144893 -0.631579,-0.550594 -0.631579,-1.009422c0,-0.586334 0.412085,-1.063515 0.918661,-1.063515s0.918989,0.476859 0.918989,1.063515c0,0.45915 -0.253616,0.864851 -0.631908,1.0091l-0.156829,0.060211l0,0.680354l0.178483,0.05023c0.056432,0.015777 0.118442,0.034452 0.183732,0.055059c0.022638,0.007084 0.047245,0.015455 0.070868,0.023183c0.043636,0.014167 0.087601,0.028979 0.133206,0.044756c0.0292,0.009982 0.059057,0.020929 0.088913,0.031876c0.04298,0.015455 0.085632,0.031554 0.128941,0.047976c0.031825,0.011913 0.062666,0.024149 0.094491,0.036384c0.043308,0.017709 0.086617,0.035418 0.129597,0.053449c0.030513,0.012879 0.060697,0.025759 0.090554,0.03896c0.046589,0.020607 0.09121,0.041858 0.136159,0.063431c0.024279,0.011591 0.049542,0.022861 0.073493,0.034774c0.065619,0.033164 0.128284,0.066651 0.185701,0.100781c0.013452,0.007728 0.024279,0.015777 0.037075,0.023827c0.038059,0.023505 0.074149,0.04701 0.106958,0.071159c-0.452769,0.490705 -1.08566,0.767933 -1.768422,0.767933zm1.282516,14.335402c-1.82912,0 -3.514535,-0.793692 -4.657283,-2.18531c0.009843,-0.009016 0.018045,-0.018997 0.028544,-0.028013c0.031169,-0.028013 0.065619,-0.055703 0.09974,-0.083394c0.040027,-0.032842 0.080055,-0.065363 0.123691,-0.097883c0.037403,-0.027369 0.077102,-0.054415 0.116801,-0.081784c0.046589,-0.031554 0.09285,-0.062787 0.142064,-0.09402c0.042652,-0.026725 0.086945,-0.053127 0.130909,-0.07953c0.050854,-0.030267 0.102693,-0.060533 0.155516,-0.089834c0.046917,-0.025759 0.094491,-0.051518 0.142721,-0.076632c0.054135,-0.028979 0.109255,-0.057635 0.165031,-0.085648c0.049214,-0.024471 0.099084,-0.048942 0.149282,-0.073091c0.057088,-0.027691 0.114833,-0.054737 0.172577,-0.081462c0.050526,-0.023183 0.101381,-0.046366 0.152235,-0.068905c0.058729,-0.025759 0.116801,-0.051196 0.17553,-0.075988c0.050854,-0.021573 0.102037,-0.043468 0.152891,-0.064075c0.058729,-0.024149 0.116801,-0.047654 0.174874,-0.071159c0.050198,-0.019963 0.100397,-0.039604 0.149611,-0.058923c0.057416,-0.022217 0.114176,-0.04379 0.170608,-0.065041c0.047902,-0.018031 0.096131,-0.036062 0.143049,-0.053449c0.05512,-0.020285 0.108599,-0.039282 0.16175,-0.058279c0.045605,-0.016421 0.090882,-0.032842 0.134518,-0.047654c0.050854,-0.018031 0.099412,-0.03413 0.147314,-0.050552c0.04134,-0.014167 0.083664,-0.028657 0.122707,-0.041858c0.046261,-0.015455 0.088913,-0.029301 0.131565,-0.043146c0.035434,-0.011913 0.073493,-0.024149 0.106302,-0.034774c0.040684,-0.012879 0.076118,-0.024149 0.112864,-0.035418c0.028544,-0.009016 0.059713,-0.018997 0.085632,-0.027047c0.031825,-0.00966 0.057088,-0.017387 0.083992,-0.025437c0.022967,-0.007084 0.04987,-0.015455 0.069556,-0.020929c0.018045,-0.005474 0.0292,-0.008694 0.043964,-0.012879c0.050526,-0.015133 0.087273,-0.025437 0.089898,-0.026403l0.178483,-0.049908l0,-1.136928l-0.156829,-0.060211c-1.021354,-0.390889 -1.707725,-1.472436 -1.707725,-2.691792c0,-1.568065 1.125032,-2.843769 2.507945,-2.843769s2.507945,1.275703 2.507945,2.843769c0,1.219356 -0.686371,2.300903 -1.707725,2.691792l-0.156829,0.060211l0,1.136928l0.178483,0.049908c0.001969,0.000644 0.016077,0.004508 0.037075,0.010625c0.007218,0.002254 0.021982,0.006762 0.031825,0.009338c0.020014,0.005796 0.039699,0.011591 0.068243,0.019963c0.014108,0.004508 0.034122,0.010304 0.04987,0.015455c0.031825,0.009338 0.063322,0.019319 0.102037,0.031233c0.02231,0.006762 0.049214,0.015455 0.073821,0.022861c0.040027,0.012557 0.080055,0.025115 0.12566,0.039926c0.028872,0.009016 0.061682,0.019963 0.092194,0.029945c0.047574,0.015455 0.095147,0.031233 0.146986,0.048298c0.034122,0.011269 0.07054,0.023827 0.106302,0.036062c0.053479,0.018353 0.107615,0.036706 0.164703,0.056669c0.038715,0.013523 0.079399,0.028013 0.119098,0.042502c0.058072,0.020285 0.116145,0.041536 0.176514,0.063431c0.04298,0.015777 0.087273,0.03252 0.130909,0.04862c0.060041,0.022539 0.12041,0.045722 0.182092,0.069549c0.046261,0.018031 0.09285,0.036384 0.139768,0.055059c0.061682,0.024471 0.123035,0.049264 0.184716,0.0747c0.047902,0.019963 0.095803,0.040248 0.143705,0.060533c0.061682,0.026081 0.123035,0.052484 0.184388,0.079852c0.04823,0.021251 0.096787,0.043468 0.145017,0.065363c0.060369,0.027691 0.120082,0.056025 0.179467,0.084682c0.047902,0.022861 0.095803,0.046688 0.143377,0.070193c0.057744,0.028979 0.114833,0.058601 0.170937,0.088224c0.046589,0.024471 0.092522,0.049264 0.137471,0.074056c0.054463,0.030589 0.106958,0.061177 0.159125,0.092088c0.043636,0.025759 0.086945,0.051518 0.128613,0.07792c0.049542,0.031233 0.096459,0.063109 0.143377,0.094985c0.039371,0.027047 0.07907,0.053771 0.116145,0.08114c0.044293,0.03252 0.08432,0.065363 0.124675,0.098527c0.034122,0.027369 0.068243,0.055059 0.099412,0.08275c0.010171,0.009338 0.018373,0.018997 0.028544,0.028335c-1.143733,1.39194 -2.829148,2.185632 -4.658267,2.185632zm4.953879,-2.577487c-0.033137,-0.029301 -0.07054,-0.057635 -0.105974,-0.086614c-0.027888,-0.022539 -0.054135,-0.045722 -0.083336,-0.067939c-0.050526,-0.038638 -0.10499,-0.07631 -0.159453,-0.113983c-0.024607,-0.017065 -0.047574,-0.034452 -0.072837,-0.051518c-0.080711,-0.053771 -0.164375,-0.106255 -0.251319,-0.158094c-0.029528,-0.017387 -0.060697,-0.03413 -0.090554,-0.051196c-0.059713,-0.034452 -0.119098,-0.068905 -0.181107,-0.102391c-0.038715,-0.020929 -0.07907,-0.041214 -0.11877,-0.061821c-0.054463,-0.028657 -0.108927,-0.057313 -0.164703,-0.085004c-0.043308,-0.021251 -0.086617,-0.041858 -0.129925,-0.062465c-0.053807,-0.026081 -0.107286,-0.05184 -0.161422,-0.076632c-0.045933,-0.020929 -0.090882,-0.041214 -0.136815,-0.061499c-0.052495,-0.023505 -0.10499,-0.04701 -0.157485,-0.069871c-0.046589,-0.020285 -0.092522,-0.039282 -0.138783,-0.058923c-0.052167,-0.021895 -0.103677,-0.043468 -0.155844,-0.064397c-0.045933,-0.018997 -0.090882,-0.036706 -0.136159,-0.054737c-0.051511,-0.020285 -0.102365,-0.04057 -0.152891,-0.060211c-0.043964,-0.016743 -0.087273,-0.033486 -0.130253,-0.049586c-0.050526,-0.018997 -0.100068,-0.03735 -0.148954,-0.055381c-0.041996,-0.015455 -0.083008,-0.030589 -0.124019,-0.0454c-0.047574,-0.017065 -0.093178,-0.033164 -0.139112,-0.049264c-0.039043,-0.013523 -0.077758,-0.027369 -0.115817,-0.040248c-0.045933,-0.015777 -0.088913,-0.030589 -0.131893,-0.045078c-0.034122,-0.011591 -0.0689,-0.023183 -0.101381,-0.033808c-0.043636,-0.014489 -0.083336,-0.027369 -0.124019,-0.04057c-0.028216,-0.009016 -0.057416,-0.018675 -0.08432,-0.027047c-0.041996,-0.013523 -0.07907,-0.025115 -0.116801,-0.037028c-0.020014,-0.00644 -0.041996,-0.013201 -0.061025,-0.018997c-0.053479,-0.016743 -0.101709,-0.031554 -0.143377,-0.04379l0,-0.449813c1.122079,-0.508092 1.864554,-1.721974 1.864554,-3.076564c0,-1.834347 -1.345838,-3.326746 -3.000084,-3.326746s-3.000084,1.492399 -3.000084,3.326746c0,1.35459 0.742475,2.568472 1.864554,3.076886l0,0.449491c-0.041668,0.012235 -0.089569,0.027047 -0.143377,0.04379c-0.019029,0.005796 -0.041012,0.012557 -0.061025,0.018997c-0.037731,0.011913 -0.075133,0.023505 -0.116801,0.037028c-0.026904,0.008372 -0.056104,0.018031 -0.08432,0.027047c-0.040684,0.013201 -0.080383,0.026081 -0.124019,0.04057c-0.032481,0.010625 -0.066931,0.022217 -0.101381,0.033808c-0.043308,0.014489 -0.086289,0.029301 -0.131893,0.045078c-0.037731,0.012879 -0.076446,0.026725 -0.115817,0.040248c-0.045933,0.016421 -0.091538,0.03252 -0.139112,0.049264c-0.041012,0.014811 -0.082023,0.029945 -0.124019,0.0454c-0.048886,0.018031 -0.098428,0.036384 -0.148954,0.055381c-0.043308,0.016421 -0.086617,0.033164 -0.130253,0.049586c-0.050526,0.019641 -0.101381,0.039604 -0.152891,0.060211c-0.045277,0.018031 -0.090226,0.03574 -0.136159,0.054737c-0.051839,0.020929 -0.103349,0.042502 -0.155844,0.064397c-0.046261,0.019641 -0.092194,0.038638 -0.138783,0.058923c-0.052495,0.022539 -0.10499,0.046366 -0.157485,0.069871c-0.045933,0.020285 -0.090882,0.04057 -0.136815,0.061499c-0.054135,0.024793 -0.107615,0.050552 -0.161422,0.076632c-0.043636,0.020607 -0.086945,0.041214 -0.129925,0.062465c-0.055776,0.027691 -0.110239,0.056347 -0.164703,0.085004c-0.039699,0.020607 -0.080055,0.040892 -0.11877,0.061821c-0.061682,0.033486 -0.121394,0.067939 -0.181107,0.102391c-0.030185,0.017065 -0.061353,0.033808 -0.090554,0.051196c-0.086945,0.05184 -0.170608,0.104323 -0.251319,0.158094c-0.025263,0.017065 -0.047902,0.034452 -0.072837,0.051518c-0.054463,0.037672 -0.108927,0.075344 -0.159453,0.113983c-0.0292,0.022217 -0.055448,0.0454 -0.083336,0.067939c-0.035434,0.028979 -0.073165,0.057313 -0.105974,0.086614c-0.674888,-0.973682 -1.030213,-2.107068 -1.030213,-3.295191c0,-3.237878 2.684459,-5.872035 5.983764,-5.872035s5.983764,2.634479 5.983764,5.872035c0.000656,1.188445 -0.354669,2.321832 -1.029557,3.295191zm7.141933,3.076242c-0.800547,0 -1.541382,-0.330034 -2.064363,-0.912827c0.002297,-0.001932 0.003609,-0.003542 0.005906,-0.005474c0.017061,-0.012557 0.038387,-0.025115 0.057088,-0.037994c0.045605,-0.031554 0.091866,-0.062787 0.144361,-0.093376c0.030513,-0.018031 0.063978,-0.035096 0.096459,-0.052805c0.045605,-0.024793 0.090882,-0.049264 0.13944,-0.073413c0.037731,-0.018353 0.076118,-0.036062 0.115161,-0.054093c0.046917,-0.021251 0.093835,-0.043146 0.141736,-0.063431c0.040355,-0.017387 0.080711,-0.03413 0.121394,-0.050874c0.047574,-0.019641 0.094163,-0.037994 0.141408,-0.056347c0.040027,-0.015455 0.079727,-0.030911 0.11877,-0.0454c0.046917,-0.017387 0.092194,-0.033486 0.137143,-0.049264c0.035106,-0.012557 0.071196,-0.025437 0.104662,-0.036706c0.047902,-0.016421 0.091866,-0.030589 0.135174,-0.044434c0.025263,-0.00805 0.052823,-0.017709 0.076446,-0.024793c0.063322,-0.019963 0.121394,-0.037028 0.168312,-0.05023l0.178483,-0.049908l0,-0.726719l-0.156829,-0.060211c-0.443254,-0.170008 -0.740834,-0.644291 -0.740834,-1.180074c0,-0.686149 0.484594,-1.244471 1.080083,-1.244471s1.080083,0.558321 1.080083,1.244471c0,0.535783 -0.297909,1.010066 -0.741163,1.180074l-0.156829,0.060211l0,0.726719l0.178483,0.049908c0.046917,0.013201 0.10499,0.030589 0.168968,0.05023c0.02231,0.007084 0.049214,0.016099 0.073821,0.023827c0.044293,0.014167 0.089241,0.028979 0.138127,0.045722c0.032809,0.010947 0.067915,0.023505 0.102365,0.035418c0.045933,0.016421 0.092194,0.033164 0.140752,0.050552c0.037731,0.014167 0.076446,0.029301 0.115817,0.044434c0.047902,0.018675 0.096459,0.037672 0.144689,0.057635c0.039371,0.016099 0.078742,0.032842 0.117785,0.049264c0.049542,0.021251 0.0981,0.043468 0.146658,0.066007c0.036746,0.017065 0.074149,0.033808 0.109911,0.05184c0.050526,0.024471 0.0981,0.05023 0.145345,0.075988c0.030841,0.016743 0.062338,0.033164 0.09121,0.049586c0.054792,0.03252 0.103677,0.065041 0.150923,0.098205c0.016405,0.011269 0.035762,0.022217 0.050854,0.033808c0.002625,0.00161 0.003609,0.003542 0.006234,0.005474c-0.522981,0.583436 -1.263487,0.913471 -2.064034,0.913471zm2.356037,-1.302106c-0.042652,-0.031876 -0.090554,-0.062143 -0.137799,-0.092732c-0.017061,-0.010947 -0.032481,-0.022539 -0.04987,-0.033486c-0.076774,-0.047332 -0.157813,-0.093054 -0.241477,-0.136843c-0.021326,-0.010947 -0.043636,-0.020929 -0.065291,-0.032198c-0.063322,-0.031876 -0.1273,-0.062787 -0.192263,-0.09241c-0.033794,-0.015133 -0.066275,-0.029301 -0.100068,-0.04379c-0.053807,-0.023183 -0.10663,-0.046044 -0.159453,-0.067617c-0.03609,-0.014489 -0.070868,-0.028335 -0.106302,-0.04218c-0.049214,-0.019319 -0.096787,-0.03735 -0.144033,-0.054737c-0.034122,-0.012557 -0.066603,-0.024793 -0.099412,-0.036062c-0.047902,-0.017387 -0.092522,-0.032842 -0.136487,-0.047332c-0.025919,-0.008694 -0.052167,-0.018031 -0.076118,-0.025759c-0.06365,-0.020929 -0.122707,-0.039926 -0.172249,-0.055381l0,-0.046366c0.542994,-0.283347 0.897663,-0.888678 0.897663,-1.559372c0,-0.952431 -0.705072,-1.727448 -1.572223,-1.727448s-1.572223,0.775017 -1.572223,1.727448c0,0.670694 0.354341,1.276025 0.897335,1.559372l0,0.046366c-0.050526,0.015777 -0.110896,0.034774 -0.176186,0.056669c-0.018701,0.006118 -0.038715,0.013201 -0.058401,0.019963c-0.050198,0.017065 -0.101709,0.034452 -0.157157,0.054415c-0.027232,0.00966 -0.054463,0.019963 -0.082679,0.030267c-0.052823,0.019641 -0.106302,0.039926 -0.162078,0.061499c-0.031169,0.012235 -0.061353,0.024149 -0.092522,0.036706c-0.057744,0.023183 -0.115161,0.047976 -0.173561,0.073734c-0.029856,0.012879 -0.059057,0.025115 -0.088913,0.038638c-0.069556,0.031876 -0.138455,0.065041 -0.206699,0.099493c-0.017389,0.008694 -0.034778,0.016743 -0.051839,0.025759c-0.084976,0.044112 -0.166999,0.090156 -0.244758,0.138453c-0.014764,0.009016 -0.027232,0.018997 -0.041668,0.028013c-0.04987,0.032198 -0.100068,0.064075 -0.144689,0.097561c-0.261162,-0.420834 -0.397977,-0.899947 -0.397977,-1.400633c0,-1.490467 1.235599,-2.703061 2.754343,-2.703061s2.754343,1.212594 2.754343,2.703061c-0.000984,0.499398 -0.137799,0.978833 -0.399289,1.399989z"/>
    <path fill="#ffffff" stroke="null" id="svg_5" d="m8.454611,27.697346c-0.405523,0 -0.735585,0.323917 -0.735585,0.72189s0.330062,0.72189 0.735585,0.72189s0.735585,-0.323917 0.735585,-0.72189s-0.330062,-0.72189 -0.735585,-0.72189zm0,1.282787c-0.315298,0 -0.571538,-0.25147 -0.571538,-0.560897s0.256241,-0.560897 0.571538,-0.560897s0.571538,0.25147 0.571538,0.560897s-0.256569,0.560897 -0.571538,0.560897z"/>
    <path fill="#ffffff" stroke="null" id="svg_6" d="m1.985597,8.881526l-0.324812,0.646545l-0.727711,0.103357l0.52659,0.503262l-0.124347,0.71062l0.649953,-0.335508l0.650281,0.335508l-0.124019,-0.710942l0.525933,-0.503262l-0.726398,-0.103357l-0.325468,-0.646223zm0.350075,1.196817l0.082351,0.472674l-0.432427,-0.222813l-0.432099,0.222813l0.082679,-0.472674l-0.350075,-0.334542l0.483609,-0.068905l0.215885,-0.430172l0.216542,0.430172l0.483281,0.068905l-0.349747,0.334542z"/>
    <path fill="#ffffff" stroke="null" id="svg_7" d="m8.699697,2.568051l-0.224744,-0.446271l-0.224416,0.446271l-0.501655,0.071481l0.362871,0.347421l-0.085632,0.490383l0.448503,-0.231507l0.44916,0.231185l-0.08596,-0.490061l0.363199,-0.347421l-0.501326,-0.071481zm0.006562,0.615313l-0.231306,-0.119134l-0.23065,0.118812l0.043964,-0.252114l-0.186685,-0.179023l0.258209,-0.036706l0.115489,-0.229897l0.115817,0.229897l0.258537,0.036706l-0.187013,0.179023l0.043636,0.252436z"/>
    <path fill="#ffffff" stroke="null" id="svg_8" d="m27.765521,22.448995l0.448832,0.231829l-0.085632,-0.490705l0.362871,-0.347421l-0.501655,-0.071803l-0.224744,-0.445949l-0.224744,0.445949l-0.501655,0.071803l0.362871,0.347421l-0.085632,0.490705l0.449488,-0.231829zm-0.374026,-0.493925l0.258209,-0.037028l0.115817,-0.229575l0.115817,0.229575l0.258209,0.037028l-0.186685,0.179023l0.043964,0.252436l-0.230978,-0.119134l-0.230978,0.119134l0.043964,-0.252436l-0.187341,-0.179023z"/>
    <path fill="#ffffff" stroke="null" id="svg_9" d="m27.765521,4.47742l-0.29594,0.894151l-0.957704,0l0.7743,0.552848l-0.295612,0.893508l0.774956,-0.552526l0.774628,0.552526l-0.295612,-0.893508l0.7743,-0.552848l-0.957704,0l-0.295612,-0.894151zm0.286097,1.3855l0.176514,0.533851l-0.462611,-0.329712l-0.46294,0.329712l0.176514,-0.533851l-0.46294,-0.330034l0.572523,0l0.176842,-0.533851l0.176514,0.533851l0.572523,0l-0.46294,0.330034z"/>
    <path fill="#ffffff" stroke="null" id="svg_10" d="m25.155212,1.62206c-0.405523,0 -0.735585,0.323917 -0.735585,0.72189s0.330062,0.72189 0.735585,0.72189s0.735585,-0.323917 0.735585,-0.72189s-0.330062,-0.72189 -0.735585,-0.72189zm0,1.282787c-0.315298,0 -0.571538,-0.25147 -0.571538,-0.560897s0.256241,-0.560897 0.571538,-0.560897s0.571538,0.25147 0.571538,0.560897s-0.256241,0.560897 -0.571538,0.560897z"/>
    <path fill="#ffffff" stroke="null" id="svg_11" d="m28.269473,15.123844c-0.323172,0 -0.585974,0.25791 -0.585974,0.575065s0.262803,0.575065 0.585974,0.575065s0.585974,-0.25791 0.585974,-0.575065s-0.262803,-0.575065 -0.585974,-0.575065zm0,0.989137c-0.232618,0 -0.421928,-0.185785 -0.421928,-0.414072s0.18931,-0.414072 0.421928,-0.414072s0.421928,0.185785 0.421928,0.414072s-0.18931,0.414072 -0.421928,0.414072z"/>
    <path fill="#ffffff" stroke="null" id="svg_12" d="m3.326186,5.449492c0,0.419224 0.347451,0.760206 0.7743,0.760206s0.7743,-0.341304 0.7743,-0.760206s-0.347451,-0.759884 -0.7743,-0.759884s-0.7743,0.340982 -0.7743,0.759884zm0.7743,-0.598892c0.336296,0 0.610253,0.268857 0.610253,0.598892c0,0.330356 -0.273958,0.599214 -0.610253,0.599214s-0.610253,-0.268857 -0.610253,-0.599214c0,-0.330034 0.273958,-0.598892 0.610253,-0.598892z"/>
    <path fill="#ffffff" stroke="null" id="svg_13" d="m6.405341,28.426319c0.10663,0.026403 0.214573,0.05023 0.323828,0.072125l0.032809,-0.157772c-0.10663,-0.020929 -0.211948,-0.044434 -0.316282,-0.070193l-0.040355,0.155841z"/>
    <path fill="#ffffff" stroke="null" id="svg_14" d="m5.17696,27.993893c0.196856,0.091444 0.399618,0.174194 0.603692,0.245996l0.05512,-0.151655c-0.198496,-0.069871 -0.396665,-0.150689 -0.588271,-0.239557l-0.07054,0.145215z"/>
    <path fill="#ffffff" stroke="null" id="svg_15" d="m1.444571,23.047887c0.032153,0.211222 0.075133,0.422766 0.127628,0.627548l0.158797,-0.03896c-0.051183,-0.199952 -0.09285,-0.406023 -0.124347,-0.612415l-0.162078,0.023827z"/>
    <path fill="#ffffff" stroke="null" id="svg_16" d="m4.059146,27.334469c0.172905,0.126862 0.355325,0.246962 0.542338,0.356759l0.084648,-0.137809c-0.18242,-0.107543 -0.360574,-0.224423 -0.528886,-0.348065l-0.0981,0.129116z"/>
    <path fill="#ffffff" stroke="null" id="svg_17" d="m1.762166,24.28785c0.073493,0.200596 0.157157,0.399583 0.250007,0.591486l0.14797,-0.068583c-0.089898,-0.187395 -0.171921,-0.381552 -0.243445,-0.576997l-0.154532,0.054093z"/>
    <path fill="#ffffff" stroke="null" id="svg_18" d="m1.537422,22.095778c0,-0.105611 0.002625,-0.211544 0.007874,-0.317155l-0.164047,-0.00805c-0.005578,0.108831 -0.007874,0.21734 -0.007874,0.325527c0,0.105289 0.002625,0.210256 0.007546,0.315223l0.164047,-0.007406c-0.005249,-0.103035 -0.007546,-0.205426 -0.007546,-0.308139z"/>
    <path fill="#ffffff" stroke="null" id="svg_19" d="m3.095208,26.472838c0.145017,0.157451 0.299877,0.310071 0.460643,0.453676l0.110239,-0.118812c-0.156829,-0.140385 -0.307751,-0.289142 -0.44916,-0.443051l-0.121723,0.108187z"/>
    <path fill="#ffffff" stroke="null" id="svg_20" d="m2.319268,25.444097c0.110896,0.181921 0.232618,0.361267 0.362215,0.532885l0.131893,-0.095629c-0.126316,-0.167754 -0.245086,-0.34227 -0.353028,-0.519683l-0.14108,0.082428z"/>
    <path fill="#ffffff" stroke="null" id="svg_21" d="m1.664722,20.839072l-0.160766,-0.032198c-0.021982,0.107221 -0.041012,0.21412 -0.057088,0.321019l0.162078,0.023827c0.016077,-0.104001 0.03445,-0.208646 0.055776,-0.312647z"/>
    <path fill="#ffffff" stroke="null" id="svg_22" d="m28.453205,24.713513l0.16339,0.014489c0.009843,-0.108187 0.016405,-0.217662 0.018373,-0.328102l-0.164047,-0.002576c-0.002297,0.106255 -0.00853,0.211866 -0.017717,0.316189z"/>
    <path fill="#ffffff" stroke="null" id="svg_23" d="m26.263839,28.080829l0.082679,0.139097c0.210308,-0.120744 0.411757,-0.258232 0.59877,-0.408921l-0.103677,-0.124608c-0.180779,0.145537 -0.375339,0.278195 -0.577772,0.394431z"/>
    <path fill="#ffffff" stroke="null" id="svg_24" d="m28.104442,26.04814l0.150595,0.064075c0.097116,-0.219272 0.176514,-0.447237 0.236883,-0.677456l-0.158797,-0.040248c-0.058072,0.222491 -0.135174,0.442407 -0.228681,0.653629z"/>
    <path fill="#ffffff" stroke="null" id="svg_25" d="m24.955731,28.578296l0.034122,0.157129c0.237539,-0.049264 0.472782,-0.11849 0.699495,-0.204782l-0.059713,-0.150367c-0.218182,0.083716 -0.444894,0.150045 -0.673903,0.198021z"/>
    <path fill="#ffffff" stroke="null" id="svg_26" d="m27.348843,27.207929l0.122379,0.106899c0.16175,-0.17838 0.310048,-0.370282 0.440629,-0.570557l-0.138455,-0.086936c-0.125332,0.193513 -0.26838,0.378654 -0.424553,0.550594z"/>
    <path fill="#ffffff" stroke="null" id="svg_27" d="m23.933721,28.672959l-0.003281,0.160992c0.030841,0.000644 0.061682,0.000966 0.092194,0.000966c0.081039,0 0.161422,-0.002254 0.241805,-0.006118l-0.008202,-0.160992c-0.10663,0.005474 -0.213589,0.00805 -0.322516,0.005152z"/>
    <rect fill="#ffffff" stroke="null" transform="matrix(0.3280932140118036,0,0,0.32198468635472016,41.38652346649684,100.34822290292294) " id="svg_28" height="2" width="0.5" y="-275.507574" x="-40.229647"/>
    <rect fill="#ffffff" stroke="null" transform="matrix(0.3280932140118036,0,0,0.32198468635472016,41.38652346649684,100.34822290292294) " id="svg_29" height="2" width="0.5" y="-271.507574" x="-40.229647"/>
    <rect fill="#ffffff" stroke="null" transform="matrix(0.3280932140118036,0,0,0.32198468635472016,41.38652346649684,100.34822290292294) " id="svg_30" height="2" width="0.5" y="-279.507574" x="-40.229647"/>
    <rect fill="#ffffff" stroke="null" transform="matrix(0.3280932140118036,0,0,0.32198468635472016,41.38652346649684,100.34822290292294) " id="svg_31" height="2" width="0.5" y="-283.507574" x="-40.229647"/>
   </g>
  </g>
 </g>
</svg>