<svg width="32" height="30" xmlns="http://www.w3.org/2000/svg">

 <g>
  <title>background</title>
  <rect fill="none" id="canvas_background" height="32" width="34" y="-1" x="-1"/>
 </g>
 <g>
  <title>Layer 1</title>
  <g stroke="null" id="svg_43">
   <g stroke="null" id="svg_2">
    <g stroke="null" id="svg_3">
     <path fill="#ffffff" stroke="null" id="svg_4" d="m16.367297,19.79839c-1.175022,0 -2.281178,-0.430589 -3.11433,-1.213268c-0.833152,-0.774021 -1.293077,-1.813552 -1.293077,-2.924078s0.459925,-2.150058 1.295537,-2.926387c0.830693,-0.78037 1.936849,-1.210959 3.111871,-1.210959c1.151042,0 2.236292,0.413273 3.063296,1.16536c0.02029,0.015007 0.039966,0.030592 0.057797,0.047908c0.829463,0.778638 1.286314,1.817015 1.286314,2.924079c0,1.117453 -0.460539,2.156984 -1.296152,2.928119c-0.829463,0.778638 -1.936234,1.209227 -3.111256,1.209227zm0,-7.092593c-0.838686,0 -1.628183,0.307646 -2.223994,0.86695c-0.596427,0.554686 -0.924154,1.295806 -0.924154,2.088298s0.327727,1.533611 0.921694,2.085989c0.598272,0.561612 1.387768,0.869258 2.226454,0.869258s1.628798,-0.307646 2.224609,-0.86695c0.597041,-0.550646 0.923539,-1.290612 0.923539,-2.088298c0,-0.771712 -0.309896,-1.496094 -0.873734,-2.046162c-0.017217,-0.013276 -0.033818,-0.027129 -0.049805,-0.042135c-0.595812,-0.559304 -1.385923,-0.86695 -2.224609,-0.86695z"/>
    </g>
   </g>
   <g stroke="null" id="svg_5">
    <g stroke="null" id="svg_6">
     <path fill="#ffffff" stroke="null" id="svg_7" d="m28.333335,7.169753c-1.735786,0 -3.148148,-1.325821 -3.148148,-2.955247s1.412363,-2.955247 3.148148,-2.955247s3.148148,1.325821 3.148148,2.955247s-1.412363,2.955247 -3.148148,2.955247zm0,-4.728395c-1.041594,0 -1.888889,0.795377 -1.888889,1.773148s0.847295,1.773148 1.888889,1.773148s1.888889,-0.795377 1.888889,-1.773148s-0.847295,-1.773148 -1.888889,-1.773148z"/>
    </g>
   </g>
   <g stroke="null" id="svg_8">
    <g stroke="null" id="svg_9">
     <path fill="#ffffff" stroke="null" id="svg_10" d="m28.962965,17.806335c-1.388998,0 -2.518519,-1.060311 -2.518519,-2.364198s1.129521,-2.364198 2.518519,-2.364198s2.518519,1.06031 2.518519,2.364198s-1.129521,2.364198 -2.518519,2.364198zm0,-3.546297c-0.694191,0 -1.259259,0.530444 -1.259259,1.182099s0.565068,1.182099 1.259259,1.182099s1.259259,-0.530444 1.259259,-1.182099s-0.565068,-1.182099 -1.259259,-1.182099z"/>
    </g>
   </g>
   <g stroke="null" id="svg_11">
    <g stroke="null" id="svg_12">
     <path fill="#ffffff" stroke="null" id="svg_13" d="m3.777778,17.806335c-1.388998,0 -2.518519,-1.060311 -2.518519,-2.364198s1.129521,-2.364198 2.518519,-2.364198s2.518519,1.06031 2.518519,2.364198s-1.129521,2.364198 -2.518519,2.364198zm0,-3.546297c-0.694191,0 -1.259259,0.530444 -1.259259,1.182099s0.565068,1.182099 1.259259,1.182099s1.259259,-0.530444 1.259259,-1.182099s-0.565068,-1.182099 -1.259259,-1.182099z"/>
    </g>
   </g>
   <g stroke="null" id="svg_14">
    <g stroke="null" id="svg_15">
     <path fill="#ffffff" stroke="null" id="svg_16" d="m28.333335,29.629632c-1.735786,0 -3.148148,-1.325821 -3.148148,-2.955247s1.412363,-2.955247 3.148148,-2.955247s3.148148,1.325821 3.148148,2.955247s-1.412363,2.955247 -3.148148,2.955247zm0,-4.728395c-1.041594,0 -1.888889,0.795377 -1.888889,1.773148s0.847295,1.773148 1.888889,1.773148s1.888889,-0.795377 1.888889,-1.773148s-0.847295,-1.773148 -1.888889,-1.773148z"/>
    </g>
   </g>
   <g stroke="null" id="svg_17">
    <g stroke="null" id="svg_18">
     <path fill="#ffffff" stroke="null" id="svg_19" d="m4.407408,7.169753c-1.735786,0 -3.148148,-1.325821 -3.148148,-2.955247s1.412363,-2.955247 3.148148,-2.955247s3.148148,1.325821 3.148148,2.955247s-1.412363,2.955247 -3.148148,2.955247zm0,-4.728395c-1.041594,0 -1.888889,0.795377 -1.888889,1.773148s0.847295,1.773148 1.888889,1.773148s1.888889,-0.795377 1.888889,-1.773148s-0.847295,-1.773148 -1.888889,-1.773148z"/>
    </g>
   </g>
   <g stroke="null" id="svg_20">
    <g stroke="null" id="svg_21">
     <path fill="#ffffff" stroke="null" id="svg_22" d="m4.407408,29.629632c-1.735786,0 -3.148148,-1.325821 -3.148148,-2.955247s1.412363,-2.955247 3.148148,-2.955247s3.148148,1.325821 3.148148,2.955247s-1.412363,2.955247 -3.148148,2.955247zm0,-4.728395c-1.041594,0 -1.888889,0.795377 -1.888889,1.773148s0.847295,1.773148 1.888889,1.773148s1.888889,-0.795377 1.888889,-1.773148s-0.847295,-1.773148 -1.888889,-1.773148z"/>
    </g>
   </g>
   <g stroke="null" id="svg_23">
    <g stroke="null" id="svg_24">
     <path fill="#ffffff" stroke="null" id="svg_25" d="m13.698134,13.526998c-0.161096,0 -0.322193,-0.05772 -0.445168,-0.173159l-7.512515,-7.05219c-0.245949,-0.230879 -0.245949,-0.604902 0,-0.835781s0.644386,-0.230879 0.890335,0l7.512515,7.052189c0.245949,0.230879 0.245949,0.604902 0,0.835781c-0.122975,0.115439 -0.284071,0.173159 -0.445168,0.173159z"/>
    </g>
   </g>
   <g stroke="null" id="svg_26">
    <g stroke="null" id="svg_27">
     <path fill="#ffffff" stroke="null" id="svg_28" d="m19.043223,13.526998c-0.161096,0 -0.322193,-0.05772 -0.445168,-0.173159c-0.245949,-0.230302 -0.245949,-0.604902 0,-0.835781l7.438116,-6.986389c0.245949,-0.230879 0.644386,-0.230879 0.890335,0c0.245949,0.230301 0.245949,0.604902 0,0.835781l-7.438116,6.986389c-0.122974,0.115439 -0.284071,0.173159 -0.445168,0.173159z"/>
    </g>
   </g>
   <g stroke="null" id="svg_29">
    <g stroke="null" id="svg_30">
     <path fill="#ffffff" stroke="null" id="svg_31" d="m6.18316,25.593295c-0.161097,0 -0.322193,-0.05772 -0.445168,-0.173159c-0.245949,-0.230879 -0.245949,-0.604902 0,-0.835781l7.514975,-7.053921c0.245949,-0.230879 0.644387,-0.230879 0.890336,0s0.245949,0.604902 0,0.835781l-7.514975,7.053921c-0.122975,0.115439 -0.284071,0.173159 -0.445168,0.173159z"/>
    </g>
   </g>
   <g stroke="null" id="svg_32">
    <g stroke="null" id="svg_33">
     <path fill="#ffffff" stroke="null" id="svg_34" d="m26.531758,25.574248c-0.161096,0 -0.322193,-0.05772 -0.445168,-0.173159l-7.494684,-7.034874c-0.245949,-0.230879 -0.245949,-0.604902 0,-0.835781s0.644387,-0.230879 0.890336,0l7.494683,7.034874c0.245949,0.230879 0.245949,0.604902 0,0.835781c-0.122974,0.11544 -0.284071,0.173159 -0.445168,0.173159z"/>
    </g>
   </g>
   <g stroke="null" id="svg_35">
    <g stroke="null" id="svg_36">
     <path fill="#ffffff" stroke="null" id="svg_37" d="m27.074076,16.033186l-6.929001,0c-0.348018,0 -0.62963,-0.264356 -0.62963,-0.591049s0.281612,-0.591049 0.62963,-0.591049l6.929001,0c0.348018,0 0.62963,0.264356 0.62963,0.591049s-0.281612,0.591049 -0.62963,0.591049z"/>
    </g>
   </g>
   <g stroke="null" id="svg_38">
    <g stroke="null" id="svg_39">
     <path fill="#ffffff" stroke="null" id="svg_40" d="m12.592593,16.033186l-6.929001,0c-0.348018,0 -0.62963,-0.264356 -0.62963,-0.591049s0.281612,-0.591049 0.62963,-0.591049l6.929001,0c0.348018,0 0.62963,0.264356 0.62963,0.591049s-0.281612,0.591049 -0.62963,0.591049z"/>
    </g>
   </g>
  </g>
 </g>
</svg>