<svg width="50.6" height="51" xmlns="http://www.w3.org/2000/svg">

 <g>
  <title>background</title>
  <rect fill="none" id="canvas_background" height="53" width="52.6" y="-1" x="-1"/>
 </g>
 <g>
  <title>Layer 1</title>
  <g stroke="null" id="svg_6">
   <path stroke="null" id="svg_1" d="m42.692504,16.963741c-0.225615,-1.111285 -1.090471,-4.980202 -2.44416,-6.461915l-0.112807,-0.123476c-1.466496,-1.605189 -3.121004,-3.416172 -7.219672,-3.827758c-0.30082,-0.041159 -0.601639,-0.041159 -0.902459,-0.041159c-3.760246,0 -5.865983,2.428363 -7.407684,4.815567c-0.789652,1.193602 -1.316086,2.881109 -1.880123,4.692091c-0.564037,1.769824 -1.128074,3.621965 -1.99293,4.856726c-1.767315,2.634156 -4.963524,3.128061 -6.73084,3.210378c-0.112807,0 -0.225615,0 -0.338422,0c-2.14334,0 -4.775512,-0.782015 -6.994057,-2.099093c-1.880123,-1.111285 -3.873053,-3.7866 -3.910656,-3.827758l-0.864857,-1.111285l-0.15041,1.440554c0,0.205793 -0.451229,4.568615 -0.225615,7.696676c0.338422,4.692091 2.556967,9.672293 5.715573,13.006147c3.722643,3.910076 8.949385,5.844534 15.905839,5.844534c10.491085,0 15.191393,-8.272897 16.958708,-11.400958c1.917725,-3.375013 2.331352,-7.408565 2.406557,-8.602167l6.58043,-4.568615l-6.392418,-3.498489zm-1.240881,7.408565l0,0.32927c0,0.041159 -0.188012,4.650932 -2.256147,8.314056c-1.692111,2.963426 -6.1292,10.824736 -15.981044,10.824736c-6.655635,0 -11.581557,-1.810982 -15.116188,-5.515265c-2.970594,-3.086902 -5.076332,-7.902469 -5.377151,-12.224132c-0.15041,-1.934459 0,-4.486298 0.112807,-6.050328c0.827254,0.94665 2.105738,2.263728 3.346619,3.045743c2.368955,1.399396 5.189139,2.263728 7.520491,2.263728c0.112807,0 0.225615,0 0.376025,0c1.955328,-0.082317 5.565164,-0.658539 7.595696,-3.704282c0.940061,-1.399396 1.541701,-3.333854 2.14334,-5.185995c0.526434,-1.687506 1.052869,-3.292695 1.729713,-4.362821c1.428893,-2.304887 3.233811,-4.362821 6.467623,-4.362821c0.263217,0 0.526434,0 0.827254,0.041159c3.647438,0.370428 5.113934,1.934459 6.505225,3.45733l0.112807,0.123476c1.090471,1.193602 1.955328,4.815567 2.180942,6.132645l0.037602,0.288111l5.151537,2.798791l-5.377151,3.7866z" fill="#ffffff"/>
   <path stroke="null" id="svg_2" d="m28.741993,24.495782l-1.090471,0.32927l0.075205,1.275919c0,1.399396 -0.188012,4.568615 -2.068135,7.038137c-1.541701,2.057935 -3.910656,3.210378 -7.031659,3.498489c-0.413627,0.041159 -0.827254,0.041159 -1.240881,0.041159l0,0c-5.527561,0 -8.084528,-3.333854 -8.949385,-4.774408l-0.526434,-1.152443l-1.128074,0.32927l0.263217,0.658539c0.112807,0.246952 2.669774,6.132645 10.303073,6.132645l0,0c0.413627,0 0.864857,0 1.316086,-0.041159c3.421824,-0.288111 6.053996,-1.605189 7.821311,-3.951235c2.782582,-3.663124 2.29375,-8.478691 2.29375,-8.684484l-0.037602,-0.699698z" fill="#ffffff"/>
   <path stroke="null" id="svg_3" d="m35.209615,12.971348c-1.84252,0 -3.346619,1.646348 -3.346619,3.663124s1.504098,3.663124 3.346619,3.663124s3.346619,-1.646348 3.346619,-3.663124s-1.504098,-3.663124 -3.346619,-3.663124zm0,6.050328c-1.203279,0 -2.218545,-1.070126 -2.218545,-2.428363s0.977664,-2.428363 2.218545,-2.428363s2.218545,1.070126 2.218545,2.428363s-0.977664,2.428363 -2.218545,2.428363z" fill="#ffffff"/>
  </g>
 </g>
</svg>